<svg width="367" height="106" viewBox="0 0 367 106" fill="none" xmlns="http://www.w3.org/2000/svg">
<path d="M375 86.8433C358.182 86.6619 124.972 86.8779 108.149 87.0118C106.497 87.0248 104.84 87.7074 102.435 88.2388C102.05 90.6538 101.38 93.0689 101.332 95.4969C101.107 106.466 95.7388 108.013 87.0097 103.451C60.6708 89.6947 34.2628 76.0555 8.071 62.0188C-2.60469 56.2987 -2.70418 50.4879 7.85904 44.7246C33.9254 30.4632 60.1518 16.474 86.5253 2.77861C97.6638 -3.0063 99.7098 -0.815882 102.534 19.5328H116.32C136.227 19.5328 355.885 18.9784 375 19" fill="url(#paint0_linear_1499_801)"/>
<defs>
<linearGradient id="paint0_linear_1499_801" x1="234.949" y1="0" x2="234.949" y2="105.855" gradientUnits="userSpaceOnUse">
<stop stop-color="#01E481"/>
<stop offset="1" stop-color="#6315FF"/>
</linearGradient>
</defs>
</svg>
