<svg width="1440" height="545" viewBox="0 0 1440 545" fill="none" xmlns="http://www.w3.org/2000/svg">
<path d="M1446 544.468C1425.84 544.468 395.939 544.489 376.578 544.468C319.388 544.377 277.693 504.678 274.973 447.753C274.813 444.306 274.882 440.854 274.873 437.406C274.579 324.093 274.298 210.767 274.008 97.4447C273.952 74.6334 267.775 68.3301 244.892 68.3171C203.907 68.3042 162.917 68.0925 121.931 68.6325C91.6777 69.0257 68.2068 92.6016 67.9386 121.682C67.6574 150.986 91.8118 175.089 122.36 175.979C176.928 177.574 218.229 219.265 218.082 272.616C217.935 325.868 176.486 367.21 121.763 368.704C93.2523 369.478 70.0755 393.101 69.2752 422.203C68.4663 451.991 91.509 477.097 121.819 478.319C141.206 479.106 160.646 478.341 180.064 478.466C201.878 478.6 216.101 492.019 215.966 512.065C215.841 531.55 201.778 544.9 180.583 544.541C152.241 544.057 123.294 546.274 95.6963 541.262C37.9792 530.781 -1.62209 474.924 1.93359 414.75C5.3422 357.182 52.6172 308.168 110.122 302.539C115.265 302.033 120.37 301.156 125.504 300.469C140.142 298.491 151.008 286.973 151.493 272.94C151.977 258.895 140.445 245.217 125.483 244.119C95.5449 241.929 67.9905 234.252 44.3509 214.711C8.15387 184.771 -8.2706 133.714 5.89588 88.6615C21.2519 39.816 54.6459 7.65556 105.71 3.52101C158.747 -0.782022 212.64 -0.682654 265.707 3.36548C312.242 6.92542 341.704 45.562 341.808 92.7226C342.055 208.218 342.081 323.7 342.193 439.19C342.228 466.045 352.678 476.868 379.376 477.162C379.376 477.162 1429.53 477.14 1446.35 477.006C1446.35 509.5 1445.95 511.928 1446 509.5C1446.22 498.531 1446 507 1446 517C1446 531 1446 514 1446 531C1446 541.5 1446 523 1446 536C1446 541 1446 516 1446 540C1446 544.468 1446 538.5 1446 544.472" fill="url(#paint0_linear_1499_799)"/>
<defs>
<linearGradient id="paint0_linear_1499_799" x1="783" y1="419" x2="783" y2="564" gradientUnits="userSpaceOnUse">
<stop stop-color="#01E481"/>
<stop offset="1" stop-color="#6315FF"/>
</linearGradient>
</defs>
</svg>
