<svg width="65" height="68" viewBox="0 0 65 68" fill="none" xmlns="http://www.w3.org/2000/svg">
<path d="M64.3538 61.6131C64.3538 61.8748 64.2142 62.1114 63.9852 62.2333L53.4152 67.8189C53.315 67.8726 53.2005 67.8977 53.0896 67.8977C52.968 67.8977 52.8427 67.8655 52.7318 67.7973C52.5207 67.6719 52.3955 67.4496 52.3955 67.2022V65.5316H45.0351C38.3618 65.5316 32.9337 60.4623 32.9337 54.2314V10.3214C32.9337 8.97344 31.4666 7.83339 29.7348 7.83339H14.5811C10.8491 7.83339 7.81476 10.8269 7.81476 14.5016C7.81476 18.1763 10.8491 21.1735 14.5811 21.1735C20.8179 21.2774 25.856 26.3897 25.856 32.66C25.856 38.9303 20.9575 43.8992 14.8459 44.1359C14.7922 44.1359 14.7386 44.143 14.6885 44.143C14.6527 44.143 14.6169 44.143 14.5811 44.143C10.8491 44.143 7.81476 47.1832 7.81476 50.9224C7.81476 54.6616 10.8491 57.6982 14.5811 57.6982H21.6302C23.7878 57.6982 25.5375 59.4513 25.5375 61.6131C25.5375 63.7749 23.7878 65.528 21.6302 65.528H14.5811C6.54093 65.528 0 58.9745 0 50.9224C0 42.8703 6.43716 36.4172 14.3915 36.3168C16.406 36.3132 18.0448 34.6713 18.0448 32.6564C18.0448 30.6416 16.406 28.9997 14.3915 28.9997C6.43716 28.8957 0 22.4282 0 14.498C0 6.56786 6.37632 0.164914 14.277 0.00358516C14.3772 8.2136e-08 14.4809 0 14.5811 0H29.7348C35.8069 0 40.7449 4.62833 40.7449 10.3178V54.2278C40.7449 56.1423 42.6699 57.6982 45.0351 57.6982H52.3955V56.0311C52.3955 55.7838 52.5243 55.5615 52.7354 55.4324C52.9429 55.3069 53.2005 55.2962 53.4152 55.4109L63.9816 60.9965C64.2106 61.1184 64.3538 61.3514 64.3538 61.6095V61.6131Z" fill="#01E481"/>
</svg>
