<svg width="730" height="355" viewBox="0 0 730 355" fill="none" xmlns="http://www.w3.org/2000/svg">
<path d="M697.978 220.595H697.967C698.033 214.586 697.958 44.6389 697.908 38.6301C697.904 38.0398 697.65 37.4494 697.456 36.5892C696.564 36.4531 695.674 36.2117 694.778 36.1963C690.734 36.1151 690.161 34.1992 691.843 31.0807C696.917 21.6725 701.948 12.2402 707.124 2.88247C709.233 -0.929529 711.376 -0.966835 713.504 2.80786C718.761 12.1195 723.921 21.486 728.975 30.9074C731.109 34.8861 730.301 35.617 722.794 36.6265V41.5489C722.794 43.2761 722.794 46.8467 722.796 51.3587H722.876L722.873 313.399C722.873 324.511 718.41 334.959 710.306 342.816C702.204 350.672 691.431 355 679.97 355C656.315 355 637.069 336.337 637.069 313.399V138.089C637.069 128.462 628.992 120.629 619.063 120.629C609.135 120.629 601.055 128.462 601.055 138.089V313.399C601.057 336.337 581.811 355 558.154 355C534.497 355 515.253 336.337 515.253 313.399V173.936C515.253 164.308 507.176 156.473 497.247 156.473C487.319 156.473 479.239 164.308 479.239 173.936V313.399C479.239 336.337 459.995 355 436.338 355C412.681 355 393.437 336.337 393.437 313.399V246.952C393.437 237.324 385.36 229.492 375.431 229.492C365.502 229.492 357.423 237.324 357.423 246.952V313.399C357.423 336.337 338.179 355 314.522 355C290.865 355 271.621 336.337 271.621 313.399V295.224C271.621 285.596 263.544 277.764 253.615 277.764C243.686 277.764 235.607 285.596 235.607 295.224V313.399C235.607 336.337 216.363 355 192.706 355H0V330.86H192.706C202.634 330.86 210.712 323.027 210.712 313.399V295.224C210.712 272.284 229.958 253.623 253.615 253.623C277.272 253.623 296.516 272.284 296.516 295.224V313.399C296.516 323.027 304.593 330.86 314.522 330.86C324.451 330.86 332.528 323.027 332.528 313.399V246.952C332.528 224.012 351.774 205.351 375.431 205.351C399.088 205.351 418.332 224.012 418.332 246.952V313.399C418.332 323.027 426.409 330.86 436.338 330.86C446.267 330.86 454.344 323.027 454.344 313.399V173.936C454.344 162.822 458.807 152.376 466.911 144.519C475.014 136.661 485.786 132.333 497.247 132.333C520.902 132.333 540.148 150.996 540.148 173.936V313.399C540.148 323.027 548.225 330.86 558.154 330.86C568.083 330.86 576.162 323.027 576.162 313.399V138.089C576.16 115.149 595.406 96.4886 619.063 96.4886C642.72 96.4886 661.964 115.149 661.964 138.089V313.399C661.964 323.027 670.041 330.86 679.97 330.86C684.779 330.86 689.303 329.045 692.703 325.746C696.104 322.448 697.978 318.063 697.978 313.399V193.123" fill="url(#paint0_linear_1473_704)"/>
<defs>
<linearGradient id="paint0_linear_1473_704" x1="215" y1="291.5" x2="596.5" y2="284" gradientUnits="userSpaceOnUse">
<stop stop-color="#6315FF"/>
<stop offset="1" stop-color="#01E481"/>
</linearGradient>
</defs>
</svg>
