<svg width="84" height="83" viewBox="0 0 84 83" fill="none" xmlns="http://www.w3.org/2000/svg">
<g clip-path="url(#clip0_1462_143)">
<path d="M19.6441 53.872C20.4272 53.992 21.1016 54.0613 21.76 54.2044C24.4301 54.7816 26.5529 56.2131 28.2645 58.3257C31.0386 61.752 33.852 65.146 36.6239 68.5746C36.9911 69.0294 37.3699 69.1864 37.9359 69.1772C39.6937 69.1449 41.4561 69.0848 43.2093 69.1841C46.1543 69.3503 48.9954 68.9047 51.8065 68.0828C52.354 67.9235 52.6774 67.6764 52.9153 67.15C54.315 64.0562 55.7702 60.9878 57.1631 57.8916C57.5488 57.0351 58.1078 56.7003 59.0387 56.7026C65.668 56.7257 72.295 56.7118 78.9242 56.7164C80.5365 56.7164 81.0932 57.6007 80.4118 59.0853C77.9726 64.3933 75.5426 69.7036 73.0618 74.9931C72.6068 75.9605 72.3643 76.9118 72.4197 77.9761C72.452 78.6018 72.4197 79.2529 72.2765 79.8601C71.8515 81.6818 70.2808 82.9793 68.4098 82.984C59.5908 83.0071 50.7717 83.0071 41.955 82.984C40.3635 82.9793 39.1324 82.2105 38.377 80.8067C38.1322 80.3496 37.8689 80.2111 37.3792 80.2226C36.1411 80.2526 34.9007 80.2226 33.6626 80.2341C31.4267 80.2526 29.5742 79.4238 28.0866 77.7568C27.2505 76.8194 26.4051 75.8889 25.4257 74.8015V82.9447H22.6354V80.5228C22.6354 77.8145 22.6539 75.1039 22.6146 72.3957C22.6077 71.987 22.4183 71.4999 22.1503 71.1905C20.6281 69.4288 19.0574 67.7111 17.4706 65.9425C18.1473 65.3307 18.7849 64.7512 19.5009 64.1047C19.7042 64.3217 19.8982 64.518 20.0807 64.7211C23.3584 68.3622 26.6545 71.9847 29.9022 75.6534C31.0132 76.9094 32.3067 77.5143 33.9906 77.4797C36.8133 77.422 39.6382 77.4636 42.4632 77.4636C42.7427 77.4636 43.0222 77.4636 43.3432 77.4636V71.9801C43.0961 71.9639 42.8489 71.9316 42.5995 71.9316C40.6984 71.927 38.7951 71.9062 36.8941 71.9408C36.1319 71.9547 35.5937 71.6823 35.1155 71.0935C32.0827 67.3578 29.0268 63.6429 25.9824 59.9165C24.2292 57.7716 21.9725 56.7095 19.2029 56.7118C16.2925 56.7164 13.3821 56.7072 10.4717 56.7141C6.25159 56.7257 3.27881 59.681 3.27188 63.8877C3.26264 69.9114 3.26957 75.9328 3.26957 81.9565C3.26957 82.2682 3.26957 82.5799 3.26957 82.9424H0.50005C0.50005 82.6284 0.50005 82.349 0.50005 82.0674C0.50005 76.0436 0.49774 70.0222 0.50005 63.9985C0.50236 59.554 2.74292 56.2131 6.86601 54.5531C7.29102 54.3822 7.43423 54.186 7.42268 53.745C7.39497 52.7083 7.43885 51.6693 7.39959 50.6327C7.38804 50.3094 7.26099 49.9608 7.09699 49.6768C6.22849 48.183 5.32072 46.7146 4.4499 45.2231C1.2392 39.7304 4.965 33.2218 11.3286 33.1987C14.5855 33.1872 17.8424 33.1895 21.0993 33.1987C23.1667 33.2057 24.7558 34.4086 25.2525 36.3133C25.7468 38.2089 24.9268 39.989 23.1274 41.0603C22.8802 41.2081 22.6562 41.6144 22.6516 41.9053C22.6146 44.325 22.6077 46.7469 22.6377 49.1666C22.6631 51.2145 21.8477 52.7199 19.9721 53.6111C19.882 53.6526 19.8104 53.7357 19.6418 53.8697L19.6441 53.872ZM77.1526 59.5448C76.9516 59.5101 76.8685 59.4847 76.7876 59.4847C71.1978 59.4824 65.6056 59.4732 60.0158 59.5009C59.7617 59.5009 59.4013 59.7595 59.2743 59.9973C58.8146 60.8585 58.4335 61.7635 58.0247 62.6501C57.0869 64.6819 56.1491 66.7137 55.1812 68.8078C56.5602 69.6366 57.863 70.4794 59.2189 71.2228C60.5863 71.9732 61.5056 72.9521 61.3601 74.693C64.2128 74.693 67.0031 74.7045 69.7911 74.6676C70.0059 74.6653 70.2969 74.3513 70.4124 74.1158C71.2001 72.4834 71.9508 70.8326 72.7107 69.1864C74.1775 66.0025 75.6442 62.8187 77.1526 59.5424V59.5448ZM12.9502 48.4116C12.9502 47.1025 12.9201 45.8719 12.9663 44.6436C12.9825 44.2049 13.0818 43.7154 13.3082 43.3483C14.1097 42.0531 14.9274 40.7601 15.856 39.5572C16.1747 39.1463 16.8169 38.8184 17.3412 38.7676C18.5377 38.6522 19.755 38.7376 20.9631 38.7284C21.9863 38.7214 22.6077 38.2066 22.6261 37.3754C22.6446 36.5142 22.0071 35.967 20.9353 35.9647C17.7131 35.9578 14.4908 35.9462 11.2686 35.967C7.17322 35.9947 4.76866 40.0837 6.75052 43.6646C7.55666 45.1215 8.44826 46.5345 9.32138 47.9544C9.43919 48.1461 9.67941 48.3816 9.87113 48.3908C10.869 48.4347 11.8692 48.4116 12.9502 48.4116ZM46.2005 72.1833V77.646C46.8011 77.3781 47.3277 77.235 47.7458 76.9395C49.1733 75.9213 50.5708 74.8615 51.9613 73.7902C52.5064 73.3723 53.0516 73.2546 53.7306 73.4116C55.1581 73.7394 56.5995 74.0003 58.0385 74.2797C58.2025 74.312 58.3758 74.2843 58.7015 74.2843C58.482 74.0765 58.415 73.9818 58.3226 73.9287C56.6503 72.9198 54.9849 71.897 53.2895 70.925C53.0077 70.7633 52.5734 70.7449 52.2431 70.8141C50.2612 71.2367 48.2863 71.7053 46.2005 72.181V72.1833ZM19.8589 41.499C19.2584 41.499 18.7664 41.4574 18.2859 41.5151C18.0434 41.5451 17.757 41.6975 17.5999 41.8868C16.2417 43.5238 15.5372 45.2993 15.6342 47.5435C15.6989 49.0442 16.274 49.9885 17.3227 50.7551C17.7131 51.0413 18.4615 51.1637 18.8865 50.9836C19.3138 50.8012 19.8012 50.1594 19.8174 49.7068C19.9028 47.0078 19.8589 44.3042 19.8589 41.499ZM69.6617 77.5213H57.2208C57.2208 78.0061 57.1977 78.4379 57.2255 78.8627C57.2809 79.6754 57.7868 80.2111 58.6137 80.218C61.8336 80.2411 65.0559 80.2411 68.2758 80.218C69.0958 80.2111 69.6017 79.6708 69.6571 78.8558C69.6848 78.431 69.6617 78.0015 69.6617 77.5213ZM10.2176 53.8789H16.7545C15.8675 53.0916 14.9621 52.2812 14.0473 51.4823C13.9041 51.3577 13.7193 51.2007 13.553 51.1983C12.4466 51.1729 11.3402 51.1845 10.2176 51.1845V53.8789ZM54.3959 77.4636C53.9085 77.4636 53.4766 77.4289 53.0539 77.4728C52.4718 77.5305 51.7996 77.4913 51.3376 77.7729C50.0996 78.5256 48.9516 79.4284 47.8867 80.1857H54.5622C54.5068 79.2875 54.4559 78.431 54.3982 77.4659L54.3959 77.4636Z" fill="#6315FF"/>
<path d="M76.5612 45.6339V48.3514H26.8416V45.6777H29.551C29.551 44.8258 29.551 44.0315 29.551 43.2396C29.551 42.3461 29.5487 41.4526 29.551 40.5614C29.5556 39.1969 30.0061 38.7374 31.3527 38.7351C33.4801 38.7305 35.6075 38.7351 37.8503 38.7351C37.8503 37.4583 37.8457 36.23 37.8503 35.004C37.8549 33.6557 38.3123 33.2055 39.6774 33.2032C41.8025 33.1985 43.9275 33.2032 46.1496 33.2032C46.1496 31.4715 46.1473 29.8092 46.1496 28.1491C46.1519 26.7315 46.5908 26.2905 48.0021 26.2882C50.0487 26.2836 52.0929 26.2859 54.1394 26.2813C54.1972 26.2813 54.2526 26.2651 54.4489 26.2374V24.3165C54.4489 23.5961 54.4489 22.8758 54.4489 22.1554C54.4489 19.461 54.5413 19.371 57.2808 19.3687C59.0086 19.3687 60.7387 19.364 62.4664 19.3594C62.5219 19.3594 62.575 19.334 62.7505 19.2925C62.7505 18.0965 62.7459 16.8705 62.7505 15.6445C62.7552 14.2916 63.2102 13.839 64.5707 13.8367C67.0492 13.8321 69.5254 13.8321 72.0038 13.8367C73.3574 13.8367 73.8148 14.2962 73.8148 15.6538C73.8148 25.277 73.8148 34.8978 73.8148 44.521C73.8148 44.8627 73.8148 45.2021 73.8148 45.6385H76.5612V45.6339ZM65.5778 16.6373V45.5762H71.0037V16.6373H65.5778ZM57.2554 45.5992H62.6974V22.1947H57.2554V45.5992ZM48.9792 29.0865V45.5762H54.405V29.0865H48.9792ZM46.0896 45.6085V36.0338H40.6614V45.6085H46.0896ZM32.3875 41.5311V45.6016H37.7949V41.5311H32.3875Z" fill="#6315FF"/>
<path d="M12.9501 30.3888H10.1829V29.5068C10.1829 21.2089 10.1829 12.9086 10.1829 4.61073C10.1852 1.6739 11.8575 0 14.791 0C36.1733 0 57.5557 0 78.938 0C81.8161 0 83.4977 1.68544 83.4977 4.56917C83.4977 19.5535 83.5 34.5377 83.4977 49.522C83.4977 52.1795 81.7653 53.9434 79.139 53.9434C61.4455 53.9503 43.752 53.9457 26.0585 53.9457H25.4718V51.1798H26.5366C43.8836 51.1798 61.2306 51.1798 78.58 51.1798C80.3955 51.1798 80.7351 50.8381 80.7351 49.0095C80.7351 34.2838 80.7351 19.5604 80.7351 4.83468C80.7351 3.13308 80.3632 2.76597 78.6539 2.76597C57.4448 2.76597 36.2357 2.76597 15.0266 2.76597C13.322 2.76597 12.9524 3.13308 12.9524 4.84161C12.9524 12.9964 12.9524 21.1512 12.9524 29.3059V30.3888H12.9501Z" fill="#6315FF"/>
<path d="M22.67 30.3772V27.6666C24.3239 27.6666 25.9546 27.6482 27.5854 27.6782C28.1236 27.6874 28.4377 27.565 28.7219 27.0409C29.7775 25.0946 32.0711 24.3604 34.0715 25.3162C34.5334 25.5379 34.8199 25.5079 35.2125 25.2147C37.2845 23.6585 39.3749 22.1231 41.4699 20.5993C41.8441 20.3269 42.0382 20.0706 42.0289 19.5511C41.9735 16.4757 44.6691 14.5548 47.6349 15.4853C47.9052 15.5707 48.321 15.513 48.5496 15.349C50.4253 14.0122 52.2824 12.6477 54.1141 11.2509C54.3405 11.0777 54.516 10.646 54.4814 10.362C54.2319 8.29096 55.3776 6.37001 57.304 5.74201C59.2235 5.11401 61.2562 5.90363 62.2309 7.73222C62.4781 8.1963 62.7483 8.31405 63.2288 8.30943C65.7904 8.29096 68.3543 8.30019 70.983 8.30019V11.0269C70.7219 11.0385 70.4448 11.0639 70.1676 11.0639C67.8623 11.0662 65.5571 11.0731 63.2542 11.0592C62.7922 11.0569 62.4966 11.1285 62.2402 11.6087C61.1407 13.6613 58.9047 14.3493 56.7612 13.4142C56.4955 13.2988 56.0313 13.3288 55.8003 13.4904C54.0148 14.7557 52.2731 16.0809 50.4945 17.3554C50.0949 17.6417 50.0395 17.9049 50.1504 18.3597C50.5892 20.1422 50.0326 21.629 48.5797 22.7003C47.1476 23.7555 45.5769 23.8063 44.0385 22.9058C43.595 22.6472 43.3271 22.6311 42.9113 22.9451C40.8879 24.4712 38.8298 25.9489 36.811 27.4819C36.5846 27.6528 36.4044 28.0845 36.4368 28.3662C36.6839 30.4372 35.5359 32.3605 33.6118 32.9862C31.69 33.6119 29.6597 32.8222 28.6849 30.9936C28.4354 30.5273 28.1629 30.4118 27.6847 30.4187C26.1002 30.4395 24.5156 30.4234 22.931 30.4187C22.8756 30.4187 22.8202 30.4003 22.6677 30.3703L22.67 30.3772ZM59.9765 9.70165C59.988 8.95821 59.3829 8.3279 58.6391 8.30712C57.8607 8.28634 57.2093 8.9305 57.2208 9.70858C57.2324 10.452 57.8561 11.0639 58.5998 11.0615C59.3436 11.0615 59.9626 10.4474 59.9742 9.70165H59.9765ZM47.5264 19.3341C47.5102 18.5906 46.8819 17.9811 46.1405 17.988C45.3597 17.995 44.7315 18.6622 44.773 19.438C44.8123 20.1791 45.4614 20.7702 46.2005 20.7401C46.942 20.7101 47.5425 20.0729 47.5264 19.3318V19.3341ZM32.286 27.6712C31.5399 27.6897 30.9347 28.3131 30.9393 29.0588C30.9439 29.8346 31.6161 30.4695 32.3899 30.4257C33.1314 30.3841 33.7227 29.7353 33.6927 28.9965C33.6626 28.2531 33.0251 27.6528 32.286 27.6712Z" fill="#6315FF"/>
<path d="M73.8494 11.0247V8.35571H76.5334V11.0247H73.8494Z" fill="#6315FF"/>
<path d="M17.1471 27.7036H19.808V30.3795H17.1471V27.7036Z" fill="#6315FF"/>
<path d="M15.6803 4.15579C16.4287 4.13501 17.0708 4.74685 17.0916 5.49722C17.1124 6.24297 16.498 6.88944 15.7496 6.91022C15.0012 6.931 14.3591 6.31916 14.3383 5.56879C14.3175 4.81842 14.925 4.17888 15.678 4.1581L15.6803 4.15579Z" fill="#6315FF"/>
<path d="M21.2425 5.49955C21.261 6.2453 20.6466 6.89177 19.8982 6.91024C19.1498 6.92872 18.5077 6.31688 18.4892 5.56651C18.4707 4.81614 19.0782 4.17659 19.8312 4.15812C20.5796 4.13965 21.2217 4.74918 21.2402 5.49955H21.2425Z" fill="#6315FF"/>
<path d="M24.012 6.91033C23.2613 6.90802 22.6376 6.28002 22.6399 5.52965C22.6422 4.77698 23.2682 4.1559 24.0189 4.15821C24.7696 4.16052 25.3932 4.78852 25.3909 5.53889C25.3886 6.28695 24.758 6.91495 24.0096 6.91264L24.012 6.91033Z" fill="#6315FF"/>
</g>
<defs>
<clipPath id="clip0_1462_143">
<rect x="0.5" width="83" height="83" rx="4" fill="white"/>
</clipPath>
</defs>
</svg>
