<svg width="84" height="83" viewBox="0 0 84 83" fill="none" xmlns="http://www.w3.org/2000/svg">
<g clip-path="url(#clip0_1462_10)">
<path d="M45.2443 49.2862C46.1691 40.6631 47.0916 32.0377 48.0164 23.4146C48.2198 21.5316 48.445 19.6508 48.6411 17.7677C48.7064 17.132 48.9558 16.6349 49.6894 16.4963C50.4327 16.3555 50.8588 16.7668 51.2026 17.3036C54.5582 22.5369 57.9211 27.7702 61.2816 33.0012C61.4027 33.1904 61.5358 33.373 61.761 33.7008C67.3755 24.8664 72.9368 16.1157 78.6215 7.16919C78.0525 7.36717 77.733 7.50576 77.3988 7.58715C76.6919 7.75873 76.1375 7.55855 75.8493 6.92502C75.5733 6.32008 75.8058 5.79653 76.4062 5.52595C78.0017 4.81323 79.6166 4.13129 81.2556 3.50655C82.1321 3.17219 82.8778 3.62314 82.9964 4.51845C83.1949 6.01431 83.3572 7.51676 83.4927 9.01921C83.5654 9.83973 83.0812 10.3567 82.3137 10.3897C81.5704 10.4227 81.0813 9.99591 80.9724 9.22379C80.9433 9.01041 80.9215 8.79483 80.8659 8.33728C80.585 8.73764 80.4107 8.96422 80.2606 9.20179C74.634 18.0559 69.0097 26.91 63.3855 35.7642C63.1894 36.0721 63.0103 36.3955 62.773 36.6749C62.221 37.3238 61.33 37.3326 60.7587 36.7013C60.5868 36.5121 60.4609 36.2899 60.3253 36.0765C57.357 31.4614 54.3936 26.844 51.4253 22.2289C51.2776 21.9979 51.1154 21.7736 50.8176 21.3336C50.6457 22.8712 50.4956 24.1845 50.3528 25.5C49.7088 31.4482 49.0672 37.3986 48.4232 43.349C47.9825 47.4164 47.5322 51.4816 47.1134 55.549C47.0407 56.2595 46.7841 56.8183 45.9609 56.9063C45.0748 57.0009 44.7092 56.4597 44.484 55.7514C42.8813 50.6985 41.2591 45.65 39.6394 40.6015C39.5329 40.2671 39.4046 39.9372 39.223 39.4268C38.3684 42.0247 37.567 44.4313 36.7898 46.8423C36.5816 47.4868 36.3346 48.0544 35.4679 48.0874C34.6423 48.1181 34.3397 47.5858 34.0685 47.0051C32.6618 43.9804 31.2455 40.9601 29.6573 37.9332C29.3788 39.088 29.0931 40.2407 28.8244 41.3956C27.8439 45.6038 26.8633 49.812 25.8997 54.0224C25.7496 54.6801 25.5462 55.2674 24.6819 55.3488C23.8152 55.4324 23.4786 54.8913 23.1881 54.2753C18.5057 44.3257 13.8185 34.3805 9.13121 24.4331C9.07068 24.3077 9.00773 24.1823 8.95931 24.0525C8.68573 23.3398 8.9351 22.7217 9.63238 22.4863C10.3878 22.2311 10.9495 22.5061 11.2642 23.1352C11.8719 24.3583 12.4384 25.599 13.0219 26.8309C16.5737 34.3585 20.123 41.8884 23.6747 49.416C23.7885 49.658 23.9193 49.8956 24.1517 50.3487C24.7013 47.9994 25.2 45.8788 25.6939 43.7538C26.4638 40.4563 27.2362 37.161 27.994 33.8614C28.1199 33.3136 28.3353 32.8561 29.0011 32.7329C29.8364 32.5811 30.2843 32.9858 30.5894 33.6436C31.9718 36.6221 33.3688 39.594 34.7609 42.5681C34.8771 42.8189 35.0055 43.063 35.204 43.4678C35.3856 42.9707 35.526 42.6143 35.6446 42.2513C36.4194 39.8888 37.182 37.524 37.9689 35.1636C38.2812 34.2287 39.1383 33.813 39.8573 34.2859C40.1866 34.5015 40.436 34.9151 40.5546 35.2824C42.0121 39.7458 43.4381 44.2179 44.8738 48.6879C44.9392 48.8925 45.0215 49.0905 45.0942 49.2928L45.2394 49.2796L45.2443 49.2862Z" fill="#6315FF"/>
<path d="M30.955 62.8719C34.4172 62.8719 37.768 62.8719 41.1163 62.8719C42.7118 62.8719 43.9103 63.523 44.6608 64.7835C46.0069 67.0449 44.3436 69.854 41.5037 69.9992C39.2158 70.1158 36.9157 70.041 34.6205 70.0498C34.267 70.0498 33.9136 70.0498 33.4681 70.0498C33.824 71.5632 33.4657 72.8039 32.2164 73.796C32.9911 75.3007 32.8701 76.6733 31.6038 77.9118C31.4804 78.0328 31.5143 78.3584 31.5845 78.5563C32.427 80.9167 30.8049 82.9757 28.0569 82.9823C23.7668 82.9933 19.479 83.0153 15.1912 82.9647C14.0267 82.9515 12.85 82.7579 11.7073 82.5247C10.596 82.2982 9.52103 81.9176 8.3807 81.592C7.75121 82.417 6.79246 82.6083 5.70781 82.5687C4.74179 82.5335 3.77335 82.5885 2.80976 82.5423C1.39826 82.4764 0.516978 81.6492 0.514557 80.3646C0.50003 74.9861 0.50003 69.6076 0.514557 64.227C0.519399 62.9203 1.47815 62.091 2.92597 62.0712C4.07357 62.0536 5.22359 62.0382 6.36877 62.0844C6.79972 62.102 7.31057 62.1988 7.63016 62.4341C8.14585 62.8125 8.56228 62.7421 8.99323 62.4275C9.50893 62.0514 10.0101 61.6576 10.4749 61.2308C11.0681 60.6853 11.6104 60.0936 12.1891 59.5304C13.5473 58.2039 15.2058 57.4362 17.2201 57.4208C20.4208 57.3944 23.6239 57.3614 26.8246 57.4076C29.9454 57.4538 31.7636 59.6822 31.03 62.4473C31.0034 62.5485 30.9937 62.6563 30.955 62.8697V62.8719ZM8.7027 65.0607C8.7027 69.6362 8.69544 74.159 8.72691 78.6817C8.72691 78.8995 9.03197 79.2493 9.26682 79.3109C11.0778 79.797 12.8912 80.5339 14.7337 80.6131C19.1618 80.8045 23.607 80.6769 28.0448 80.6857C28.7058 80.6857 29.2094 80.4657 29.2772 79.8476C29.345 79.2273 28.9188 78.9347 28.2506 78.8269C27.3839 78.6861 26.9093 78.1736 27.0304 77.5532C27.1757 76.8097 27.7204 76.5039 28.5291 76.5369C29.3135 76.5699 30.0592 76.4533 30.1463 75.5954C30.2238 74.8321 29.6089 74.5681 28.8704 74.5021C28.8123 74.4977 28.7542 74.4757 28.6961 74.4559C28.0715 74.2514 27.7809 73.84 27.8511 73.2483C27.9214 72.6499 28.3184 72.3178 28.9745 72.2562C29.3934 72.2166 29.897 72.3112 30.2093 72.1286C30.5846 71.9086 30.9961 71.4686 31.0155 71.1057C31.0325 70.7911 30.5579 70.4215 30.2359 70.14C30.0882 70.0124 29.7009 70.107 29.558 69.9772C29.2045 69.656 28.747 69.2931 28.6622 68.8905C28.5484 68.3405 28.9842 67.9094 29.6403 67.7994C29.9648 67.7466 30.3013 67.7488 30.6306 67.7488C33.8918 67.7444 37.1506 67.7488 40.4118 67.7444C40.7144 67.7444 41.0171 67.7488 41.3149 67.7136C42.092 67.619 42.5762 67.1109 42.569 66.4355C42.5617 65.7668 42.0436 65.2564 41.281 65.1883C40.9807 65.1619 40.6781 65.1751 40.3755 65.1751C34.4268 65.1751 28.4806 65.1751 22.532 65.1707C22.1737 65.1707 21.8008 65.1707 21.457 65.0871C20.8179 64.9331 20.5152 64.5019 20.5661 63.9124C20.6169 63.3206 20.9946 62.9599 21.6556 62.8873C21.9243 62.8587 22.1979 62.8697 22.469 62.8697C23.9483 62.8675 25.4276 62.8961 26.9069 62.8543C27.9964 62.8235 28.7034 62.1284 28.6767 61.233C28.6525 60.3619 27.9746 59.779 26.9021 59.7108C26.6309 59.6932 26.3598 59.6998 26.0886 59.6998C23.5222 59.6998 20.9534 59.7658 18.3919 59.6778C16.3195 59.6074 14.7288 60.2431 13.4142 61.6994C12.1358 63.1183 10.8212 64.5525 8.70028 65.0585L8.7027 65.0607ZM3.11723 64.4073V80.215H6.10002V64.4073H3.11723Z" fill="#6315FF"/>
<path d="M18.0554 11.1375C18.0506 4.96712 23.5247 -0.00659279 30.3134 6.55964e-06C37.0247 0.00660591 42.5279 5.00891 42.5351 11.1111C42.5424 17.2551 37.0271 22.253 30.2529 22.2398C23.5077 22.2288 18.0603 17.2705 18.0554 11.1375ZM20.5952 11.1089C20.5855 15.966 24.8926 19.9124 30.2238 19.9322C35.5987 19.952 39.9905 16.0012 39.9978 11.1375C40.0051 6.31558 35.6519 2.33398 30.3449 2.30758C24.9725 2.28118 20.6048 6.22539 20.5976 11.1111L20.5952 11.1089Z" fill="#6315FF"/>
<path d="M52.5487 70.503C51.5246 70.503 50.5997 70.4964 49.6724 70.503C48.8517 70.5118 48.1907 70.2478 47.7961 69.5747C47.3869 68.8796 47.4814 68.2042 47.9801 67.5663C50.515 64.3304 53.0353 61.0835 55.5872 57.8587C56.4999 56.706 58.0155 56.695 58.9235 57.8411C61.4777 61.0659 63.9957 64.3128 66.5305 67.5487C67.0269 68.1822 67.1697 68.8466 66.7484 69.5505C66.332 70.2478 65.6517 70.5206 64.7922 70.5052C63.8915 70.4876 62.9909 70.5008 61.9522 70.5008C61.9522 71.6711 61.9522 72.782 61.9522 73.8929C61.9474 75.5251 61.2986 76.1279 59.5069 76.1389C58.0277 76.1477 56.5508 76.1477 55.0715 76.1389C53.2194 76.1301 52.5536 75.5251 52.5463 73.8621C52.5414 72.7732 52.5463 71.6843 52.5463 70.4986L52.5487 70.503ZM63.9303 68.1998C61.6302 65.2631 59.4755 62.5134 57.2626 59.6845C55.0182 62.553 52.8635 65.3071 50.6021 68.1998C51.6432 68.1998 52.4785 68.1976 53.3162 68.1998C54.7011 68.2064 55.0836 68.554 55.0884 69.8145C55.0933 71.1234 55.0884 72.4322 55.0884 73.7895H59.4198C59.4198 72.3948 59.4101 71.0288 59.4222 69.6671C59.4319 68.6266 59.8725 68.2218 61.008 68.2042C61.9038 68.191 62.8021 68.202 63.9303 68.202V68.1998Z" fill="#6315FF"/>
<path d="M63.7656 43.2609C63.7656 42.6934 63.7632 42.1786 63.7656 41.6639C63.7729 40.6322 64.2087 40.1196 65.0633 40.1328C65.8841 40.1438 66.2932 40.6366 66.3005 41.6243C66.3053 42.0906 66.3053 42.5548 66.3126 43.0211C66.3126 43.0739 66.3392 43.1245 66.3707 43.2323C66.4845 43.2521 66.6225 43.2939 66.7605 43.2983C68.54 43.3555 68.7942 43.5887 68.7966 45.1791C68.7966 47.8651 68.7966 50.5488 68.7966 53.2347C68.7966 54.7856 68.5158 55.0517 66.8355 55.1133C66.6879 55.1199 66.5426 55.1463 66.3029 55.1727C66.3029 55.7821 66.315 56.3782 66.3005 56.9744C66.2811 57.7883 65.7824 58.292 65.0318 58.2854C64.2886 58.2788 63.7947 57.7707 63.7704 56.9546C63.7535 56.3826 63.768 55.8107 63.768 55.2365C63.647 55.1859 63.5719 55.1287 63.4944 55.1243C61.3953 54.9945 61.3033 54.9044 61.3033 52.9576C61.3033 50.4916 61.3033 48.0256 61.3033 45.5597C61.3033 43.4501 61.359 43.3951 63.768 43.2609H63.7656ZM66.1867 52.7574V45.6675H63.9157V52.7574H66.1867Z" fill="#6315FF"/>
<path d="M73.3387 45.2033C71.6746 44.954 70.8425 44.0543 70.8425 42.5042C70.8425 40.0624 70.8425 37.6229 70.8425 35.1811C70.8425 33.5753 71.0992 33.3355 72.8666 33.2783C72.9852 33.2739 73.1038 33.2519 73.3411 33.2255C73.3411 32.6052 73.3242 31.9826 73.3459 31.3601C73.3726 30.5704 73.8326 30.1238 74.5855 30.1194C75.3191 30.115 75.8276 30.577 75.8663 31.3425C75.8978 31.965 75.8736 32.5898 75.8736 33.1969C77.507 33.3905 78.3237 34.2183 78.3237 35.6805C78.3237 38.2036 78.3237 40.7268 78.3237 43.2499C78.3237 44.8228 78.0671 45.0603 76.3554 45.1043C76.2367 45.1065 76.1205 45.1241 75.876 45.1439C75.876 45.7401 75.8905 46.334 75.8736 46.9258C75.8469 47.7639 75.3845 48.2478 74.6243 48.2632C73.8108 48.2786 73.3605 47.8035 73.3435 46.895C73.3338 46.3252 73.3435 45.7555 73.3435 45.2033H73.3387ZM73.4549 35.6321V42.7572H75.7017V35.6321H73.4549Z" fill="#6315FF"/>
<path d="M34.79 13.4166C34.7561 14.7562 33.8167 15.8561 32.2406 16.2675C31.708 16.4061 31.5022 16.5886 31.5143 17.0968C31.5312 17.8139 31.0639 18.2429 30.2892 18.2561C29.4999 18.2693 29.006 17.8007 29.0326 17.1188C29.0593 16.4567 28.6307 16.3731 28.1441 16.1223C27.379 15.7285 26.6358 15.238 26.0305 14.6616C25.5027 14.1579 25.6431 13.5045 26.2677 13.0778C26.8972 12.6488 27.5074 12.783 28.0327 13.3088C28.8704 14.1469 30.3328 14.4834 31.4997 14.0523C31.7927 13.9445 32.1631 13.6541 32.1946 13.4166C32.2236 13.1944 31.9016 12.8116 31.6353 12.706C30.9211 12.4266 30.1512 12.2661 29.4079 12.0439C28.8365 11.8745 28.2385 11.7425 27.7131 11.4917C26.5026 10.911 25.7738 10.0135 25.8586 8.71342C25.9385 7.45734 26.7181 6.60822 27.9528 6.16387C28.6186 5.92409 29.0714 5.73931 29.0665 4.96279C29.0617 4.35125 29.6137 3.97068 30.2989 3.99048C31.0179 4.01248 31.5361 4.39744 31.5046 5.07938C31.4755 5.70631 31.8266 5.8581 32.3592 6.10447C33.0856 6.44324 33.778 6.92279 34.3276 7.47054C34.8312 7.97209 34.7367 8.63202 34.1 9.06098C33.4778 9.48114 32.8628 9.36895 32.3326 8.841C31.5385 8.05128 30.0882 7.78071 29.0278 8.25586C28.7687 8.37245 28.4419 8.66502 28.4443 8.8762C28.4443 9.09178 28.7663 9.40415 29.0254 9.50094C29.6645 9.73631 30.3618 9.83531 31.0083 10.0553C31.8484 10.3413 32.7151 10.614 33.4729 11.0386C34.4026 11.5577 34.8457 12.4003 34.7924 13.4188L34.79 13.4166Z" fill="#6315FF"/>
</g>
<defs>
<clipPath id="clip0_1462_10">
<rect x="0.5" width="83" height="83" rx="4" fill="white"/>
</clipPath>
</defs>
</svg>
