<svg width="84" height="83" viewBox="0 0 84 83" fill="none" xmlns="http://www.w3.org/2000/svg">
<g clip-path="url(#clip0_1462_46)">
<path d="M12.087 17.0961C16.1239 14.0706 20.3331 10.8977 24.5714 7.76268C25.1196 7.35823 24.8153 6.98954 24.7347 6.59627C24.2894 4.42659 24.9093 2.59878 26.6234 1.22904C28.3711 -0.169751 30.3515 -0.373089 32.3542 0.632429C34.3235 1.62231 35.4446 3.32275 35.2454 5.49914C35.129 6.77503 35.6325 7.20852 36.5612 7.74033C40.4325 9.95694 44.2635 12.2383 48.1102 14.4974C48.372 14.6516 48.6405 14.7968 48.9292 14.96C50.4173 13.6595 52.109 13.0696 54.0424 13.6059C54.7249 13.7958 55.3269 14.2494 55.9937 14.5153C56.269 14.6248 56.6964 14.6896 56.9202 14.5533C60.8183 12.1624 64.6896 9.73126 68.5833 7.33142C69.0062 7.06998 69.0286 6.79291 68.948 6.36612C68.5497 4.21655 69.2501 2.44013 70.9687 1.13519C72.694 -0.17422 74.6274 -0.355214 76.5675 0.612319C78.5054 1.57762 79.5303 3.22443 79.5303 5.38965C79.5303 7.51688 78.539 9.14359 76.6436 10.1268C74.7438 11.1122 72.8551 10.9625 71.1141 9.73126C70.6084 9.37374 70.2974 9.38715 69.8051 9.69774C66.0546 12.0618 62.293 14.4058 58.5157 16.7274C58.001 17.0447 57.9048 17.3442 58.001 17.9318C58.359 20.1529 57.5422 21.9338 55.714 23.2119C53.9462 24.4476 51.572 24.4543 49.8019 23.2365C47.9625 21.9695 47.1502 20.1976 47.4657 17.972C47.5261 17.5453 47.5574 17.2704 47.1166 17.0134C42.7575 14.4728 38.4096 11.9099 34.0594 9.35586C33.9654 9.3 33.8602 9.26648 33.773 9.2285C31.1324 11.1457 29.2125 11.2462 26.6144 9.57708C25.2785 10.5759 23.9202 11.5926 22.5619 12.6093C19.7714 14.6985 16.9922 16.8034 14.1771 18.8614C13.6423 19.2524 13.5304 19.5831 13.696 20.2244C14.2778 22.4857 13.3066 24.7828 11.3441 26.0073C9.36371 27.2429 6.81045 27.0575 5.02473 25.5514C3.27706 24.0789 2.66168 21.6076 3.50979 19.4759C4.35565 17.3486 6.49493 15.9118 8.79309 16.142C9.83811 16.247 10.8451 16.723 12.0915 17.0984L12.087 17.0961ZM32.6273 5.39635C32.6273 3.93277 31.439 2.73508 29.9755 2.71944C28.483 2.7038 27.2544 3.935 27.2723 5.42764C27.2902 6.88452 28.4986 8.0688 29.9643 8.06433C31.4144 8.05986 32.6273 6.84654 32.625 5.39635H32.6273ZM52.7199 21.4467C54.17 21.4601 55.3985 20.2602 55.4142 18.8122C55.4298 17.3486 54.2595 16.1353 52.796 16.104C51.3034 16.0705 50.0592 17.2861 50.0615 18.7787C50.0615 20.2378 51.2564 21.4333 52.7199 21.4489V21.4467ZM11.1785 21.4869C11.1942 20.0233 10.0216 18.8122 8.55813 18.7787C7.06555 18.7452 5.82137 19.963 5.82361 21.4534C5.82585 22.9125 7.0208 24.1079 8.48428 24.1213C9.93434 24.1348 11.1606 22.9326 11.1763 21.4847L11.1785 21.4869ZM76.8606 5.4254C76.8786 3.96628 75.7015 2.75296 74.238 2.71944C72.779 2.68592 71.5438 3.85903 71.508 5.31368C71.4722 6.81078 72.6761 8.05539 74.1709 8.0621C75.6321 8.0688 76.8428 6.88229 76.8606 5.4254Z" fill="#6315FF"/>
<path d="M52.0351 75.9101C52.6908 76.4955 53.3084 77.0452 53.9238 77.5949C50.4329 81.9857 42.6523 84.924 35.2185 81.5097C28.23 78.2988 24.4773 70.3395 26.46 62.8227C28.4225 55.3819 35.6638 50.2984 43.2721 50.9241C51.6972 51.6168 58.6812 58.9369 58.1173 68.2369C58.6991 67.4816 59.178 66.8627 59.7173 66.1633C60.4222 66.6906 61.1024 67.1978 61.8521 67.7587C60.4647 69.5977 59.1355 71.4165 57.7391 73.1818C57.1931 73.8722 56.2644 73.8231 55.705 73.1058C54.3534 71.3696 53.051 69.5977 51.6726 67.7654C52.3842 67.2291 53.0622 66.7174 53.8007 66.161C54.284 66.7934 54.7338 67.3811 55.1993 67.9888C56.6471 64.5231 53.0466 57.7527 48.4659 55.2277C42.5046 51.943 34.9612 53.6904 31.0429 59.2654C27.147 64.8069 28.051 72.4801 33.0904 76.9469C38.2529 81.5231 46.5034 81.6929 52.0351 75.9101Z" fill="#6315FF"/>
<path d="M80.8864 62.8963H78.2257V21.5114H70.1721V62.8986H67.4823V62.0137C67.4823 48.2426 67.4823 34.4692 67.4823 20.6981C67.4823 19.1607 67.8694 18.7764 69.409 18.7764C72.6761 18.7764 75.9432 18.7719 79.2103 18.7764C80.412 18.7764 80.8841 19.2479 80.8841 20.4478C80.8864 34.3865 80.8841 48.3253 80.8841 62.2662V62.8963H80.8864Z" fill="#6315FF"/>
<path d="M27.2991 54.8678H24.5892V53.9316C24.5892 42.8641 24.5892 31.7967 24.5892 20.7293C24.5892 19.1428 24.9629 18.7764 26.5696 18.7764C29.8076 18.7764 33.0479 18.7741 36.2859 18.7764C37.5077 18.7764 37.9888 19.2367 37.9911 20.4165C37.9955 29.5042 37.9933 38.5918 37.9911 47.6817C37.9911 47.818 37.9776 47.9565 37.9687 48.1554H35.3237V21.4935H27.2991V54.8678Z" fill="#6315FF"/>
<path d="M13.8928 34.8759H5.83922V62.8784H3.17854C3.16512 62.6081 3.1405 62.3399 3.1405 62.0696C3.1405 52.7316 3.1405 43.3915 3.1405 34.0536C3.1405 32.5632 3.53658 32.161 5.01125 32.1587C8.30521 32.1587 11.6014 32.1543 14.8954 32.1587C16.05 32.161 16.5401 32.6369 16.5401 33.7743C16.5446 43.3088 16.5423 52.8434 16.5401 62.3757C16.5401 62.5366 16.5244 62.6975 16.5132 62.8941H13.8906V34.8736L13.8928 34.8759Z" fill="#6315FF"/>
<path d="M59.4108 54.8677H56.7814V34.8959H48.7278V48.1755H46.0739C46.0604 47.914 46.0381 47.6459 46.0381 47.38C46.0358 42.9199 46.0358 38.4599 46.0381 33.9999C46.0381 32.5743 46.452 32.1609 47.8775 32.1587C51.2005 32.1587 54.5236 32.152 57.8444 32.1609C58.9409 32.1631 59.4354 32.6525 59.4376 33.7429C59.4444 40.6274 59.4399 47.5141 59.4376 54.3985C59.4376 54.5348 59.422 54.6689 59.4108 54.8677Z" fill="#6315FF"/>
<path d="M0.5 68.2346V65.656H23.1817V68.2346H0.5Z" fill="#6315FF"/>
<path d="M64.8395 68.2346V65.6582H83.5V68.2346H64.8395Z" fill="#6315FF"/>
<path d="M40.6741 57.6163H43.3102C43.3258 57.8576 43.3527 58.0721 43.3527 58.2844C43.3549 61.4864 43.337 64.6862 43.3661 67.8882C43.3728 68.7462 43.0618 69.2892 42.2786 69.6624C40.6226 70.4489 38.9936 71.2958 37.2683 72.1605C36.87 71.3762 36.4895 70.6232 36.0554 69.7696C37.2168 69.1931 38.3021 68.5786 39.4456 68.1049C40.3877 67.7161 40.7435 67.1888 40.7077 66.1229C40.6137 63.3187 40.6764 60.5077 40.6764 57.614L40.6741 57.6163Z" fill="#6315FF"/>
</g>
<defs>
<clipPath id="clip0_1462_46">
<rect x="0.5" width="83" height="83" rx="4" fill="white"/>
</clipPath>
</defs>
</svg>
