<svg width="84" height="83" viewBox="0 0 84 83" fill="none" xmlns="http://www.w3.org/2000/svg">
<g clip-path="url(#clip0_1462_96)">
<path d="M14.3425 27.6605C6.644 27.6513 0.474548 21.4296 0.499956 13.7113C0.529983 6.13857 6.7618 -0.00692255 14.4095 5.85254e-06C21.9394 0.00693426 28.1643 6.2425 28.1643 13.7806C28.1643 21.4527 21.9695 27.6721 14.3402 27.6605H14.3425ZM14.3102 2.76906C8.16846 2.79446 3.24399 7.76675 3.26708 13.9169C3.29018 19.9838 8.28626 24.9146 14.3957 24.8984C20.4496 24.8845 25.4295 19.8568 25.3995 13.7875C25.3695 7.69054 20.3896 2.74135 14.3125 2.76675L14.3102 2.76906Z" fill="#6315FF"/>
<path d="M69.7036 27.6605C61.9981 27.6559 55.8194 21.4527 55.8356 13.7367C55.8541 6.16167 62.0743 0.00462149 69.7174 2.55121e-06C77.2843 -0.00461639 83.5277 6.26328 83.5 13.8406C83.4722 21.4711 77.2889 27.6651 69.7036 27.6628V27.6605ZM58.6027 13.8199C58.5912 19.903 63.5387 24.873 69.632 24.8984C75.7021 24.9238 80.7236 19.94 80.7328 13.8845C80.7421 7.77137 75.8037 2.77829 69.7428 2.76675C63.5873 2.7552 58.6166 7.68591 58.6027 13.8199Z" fill="#6315FF"/>
<path d="M83.5001 69.1248C83.4954 76.7946 77.2983 83.0093 69.669 82.9955C62.0098 82.9816 55.838 76.7946 55.838 69.1225C55.838 61.5036 62.0744 55.3234 69.7545 55.335C77.2844 55.3442 83.5047 61.5867 83.5024 69.1248H83.5001ZM80.7329 69.201C80.7329 63.0902 75.7877 58.1063 69.7222 58.1017C63.5689 58.0971 58.6075 63.0371 58.6028 69.1733C58.5982 75.2541 63.555 80.2149 69.6529 80.2334C75.7207 80.2495 80.7329 75.2588 80.7329 69.201Z" fill="#6315FF"/>
<path d="M28.1666 41.4874C28.1989 33.8177 34.4169 27.6306 42.0531 27.6699C49.7123 27.7091 55.8494 33.9147 55.8287 41.596C55.8102 49.2057 49.5368 55.3719 41.859 55.3304C34.3291 55.2911 28.1366 49.0278 28.1666 41.4851V41.4874ZM53.0638 41.462C53.0523 35.3766 48.0932 30.4435 41.9838 30.4366C35.9206 30.4297 30.9222 35.4343 30.9361 41.499C30.9499 47.6075 35.8998 52.5682 41.9769 52.5659C48.1209 52.5636 53.0777 47.6006 53.0662 41.4643L53.0638 41.462Z" fill="#6315FF"/>
<path d="M28.1621 69.1663C28.1759 76.7968 21.958 82.9977 14.2918 83.0024C6.75262 83.0047 0.511565 76.7853 0.500016 69.2564C0.488467 61.6098 6.63713 55.3603 14.1994 55.3372C21.9303 55.3118 28.1482 61.4735 28.1621 69.1663ZM14.3149 80.231C20.4566 80.2264 25.4111 75.261 25.3949 69.1201C25.3811 63.037 20.4196 58.1063 14.3056 58.1017C8.24474 58.0971 3.24867 63.1063 3.26484 69.171C3.281 75.2772 8.23319 80.2356 14.3126 80.231H14.3149Z" fill="#6315FF"/>
<path d="M19.796 40.1178C21.1888 29.8499 26.5291 22.9353 36.5513 20.0808C43.9403 17.9769 52.6482 20.4665 57.5842 25.8452C56.9328 26.4249 56.2769 27.0069 55.6116 27.5981C48.8393 21.7529 41.2147 20.2355 32.9734 24.4295C26.7092 27.6166 23.4571 33.0508 22.6509 40.1154C23.5356 40.1154 24.3348 40.1039 25.134 40.1178C26.5291 40.1409 27.1412 41.0739 26.5314 42.3164C25.2263 44.9769 23.9167 47.6374 22.5285 50.254C22.3045 50.6767 21.667 51.097 21.2073 51.1108C20.7939 51.1247 20.1864 50.6697 19.9716 50.2609C18.5765 47.6143 17.2506 44.933 15.9364 42.2471C15.382 41.1154 16.0034 40.1524 17.2714 40.1201C18.1307 40.097 18.9899 40.1154 19.7983 40.1154L19.796 40.1178ZM21.2512 46.7021C21.9303 45.3395 22.5123 44.1732 23.1314 42.9307H19.3664C19.9901 44.1801 20.5721 45.3441 21.2512 46.7021Z" fill="#6315FF"/>
<path d="M61.2475 42.8846C60.446 42.8846 59.6468 42.8962 58.8453 42.8823C57.471 42.8569 56.8705 41.9031 57.4779 40.6652C58.7737 38.0324 60.0672 35.395 61.4369 32.8015C61.6656 32.3696 62.2477 31.9816 62.735 31.8638C63.3933 31.7068 63.8206 32.238 64.1094 32.82C65.4028 35.4227 66.7148 38.0186 67.999 40.626C68.6389 41.9239 68.0499 42.8615 66.6085 42.8823C65.8047 42.8939 65.0009 42.8823 64.2156 42.8823C62.6727 53.7022 56.9144 60.8177 46.1299 63.2033C38.1843 64.9608 30.5781 61.6329 26.4136 57.1133C27.028 56.5128 27.6424 55.9123 28.2637 55.3073C35.2485 61.2888 42.9147 62.7368 51.26 58.4643C57.0714 55.4874 61.1112 49.007 61.2406 42.8846H61.2475ZM64.6383 40.0763C64.0077 38.8177 63.4187 37.6398 62.7466 36.2957C62.0675 37.6652 61.4854 38.8431 60.8756 40.0763H64.6383Z" fill="#6315FF"/>
<path d="M20.6645 7.22872C20.124 7.94927 19.6113 8.63749 19.0569 9.37421C17.5717 8.41117 15.9918 8.02087 14.278 8.49431C13.2039 8.79223 12.2777 9.33957 11.4323 10.3742H17.0543V13.1248H10.2358V14.4758H15.6407V17.2772H11.5247C13.0353 19.5151 15.8971 19.8915 19.0754 18.328C19.5951 19.0209 20.124 19.7229 20.6507 20.4204C17.3292 23.2587 11.7303 22.4435 9.074 18.8038C8.70905 18.3049 8.44804 17.6052 7.95606 17.3604C7.45483 17.1109 6.73187 17.3049 6.06665 17.3049V14.5682C6.48241 14.5428 6.89586 14.5197 7.36244 14.492V13.1733C6.9513 13.1548 6.55633 13.1386 6.09437 13.1179V10.4805C6.12209 10.462 6.17059 10.3973 6.20986 10.4019C7.56801 10.6029 8.33486 10.0255 9.14329 8.86613C11.721 5.16636 17.1144 4.4435 20.6576 7.23103L20.6645 7.22872Z" fill="#6315FF"/>
<path d="M74.7413 13.1062C76.2888 14.351 77.0025 15.9353 76.3558 17.8983C75.7622 19.6997 74.3832 20.5866 72.4638 20.7852C72.4453 21.1986 72.4268 21.6189 72.4061 22.0854H69.6828V20.8083H68.3247C68.2993 21.224 68.2761 21.6397 68.2484 22.0923H65.5621C65.5367 21.6789 65.5113 21.2632 65.4836 20.7944C65.0448 20.7644 64.629 20.7367 64.1763 20.7067V18.0254C64.5874 18 65.0009 17.9769 65.4651 17.9491V9.71127H64.1971V6.963C64.6013 6.93529 65.0147 6.90526 65.4882 6.87062V5.5958H68.2369C68.2646 5.99533 68.2923 6.40873 68.3247 6.86831H69.6228C69.6482 6.47801 69.6736 6.06 69.7013 5.58887H72.3807C72.3968 5.70203 72.4384 5.81058 72.4268 5.9145C72.3298 6.7182 72.5677 7.21011 73.3554 7.67201C75.1455 8.72513 75.5543 10.6143 74.7413 13.1039V13.1062ZM68.327 17.9699C69.7775 17.9699 71.1796 18.0161 72.5747 17.9515C73.3184 17.9168 73.755 17.3926 73.8035 16.6351C73.8497 15.926 73.3069 15.2679 72.5631 15.2401C71.1657 15.1916 69.7683 15.2263 68.327 15.2263V17.9699ZM68.3223 12.4434C69.3086 12.4434 70.1956 12.4734 71.0825 12.4341C71.854 12.4018 72.413 11.8406 72.4222 11.1293C72.4315 10.3695 72.0319 9.80596 71.295 9.73205C70.3157 9.63275 69.3179 9.70665 68.3247 9.70665V12.4411L68.3223 12.4434Z" fill="#6315FF"/>
<path d="M68.297 77.418V74.7205H65.5645V71.97H68.2277V70.575H65.583V67.7944H67.939C66.7148 66.1547 65.6038 64.6651 64.4211 63.0808C65.1372 62.5404 65.8347 62.0138 66.6178 61.4226C67.6271 62.7621 68.6042 64.0623 69.6598 65.4642C70.6876 64.1062 71.6693 62.8106 72.7179 61.4249C73.4455 61.97 74.1454 62.4965 74.9168 63.0762C73.7596 64.6235 72.6324 66.1316 71.4175 67.7575H73.7504V70.5404H71.0872V71.9076H73.7619V74.6536H71.071V77.418H68.29H68.297Z" fill="#6315FF"/>
<path d="M40.5587 33.2356H43.402C43.0117 34.4966 43.8362 35.0231 44.6978 35.6398C45.6795 36.3418 46.0883 37.4296 46.1414 38.6883H43.4713C43.402 38.5289 43.3281 38.321 43.2242 38.1294C42.88 37.4919 42.3326 37.2148 41.6396 37.4111C40.9559 37.6051 40.5748 38.1109 40.6349 38.8361C40.6949 39.5543 41.1361 39.9769 41.8429 40.1016C42.2379 40.1709 42.6513 40.164 43.0347 40.2679C44.7255 40.7298 45.7626 41.8522 46.0744 43.5566C46.3747 45.1986 45.8388 46.6467 44.4507 47.5543C43.5983 48.1132 43.141 48.6582 43.439 49.7344H40.7226C40.7019 49.7044 40.6395 49.6559 40.6441 49.6167C40.7642 48.6836 40.4686 48.0855 39.5793 47.5705C38.429 46.903 37.9139 45.716 37.8631 44.3141H40.5332C40.6002 44.4689 40.6741 44.6744 40.7758 44.8661C41.1199 45.5035 41.665 45.7829 42.358 45.5866C43.044 45.3926 43.4228 44.8869 43.3627 44.1617C43.3027 43.4458 42.8592 43.0231 42.1524 42.9007C41.7574 42.8314 41.344 42.8361 40.9606 42.7298C39.2721 42.2656 38.2327 41.1409 37.9232 39.4388C37.6252 37.7968 38.1634 36.3488 39.5516 35.4434C40.4108 34.8846 40.852 34.3349 40.554 33.2379L40.5587 33.2356Z" fill="#6315FF"/>
<path d="M10.1272 70.5404H7.4686V67.7945H9.97704C9.55896 63.6998 10.3905 61.7783 13.0075 60.6929C15.2757 59.7529 17.5924 60.455 19.3802 62.6559C18.7404 63.2471 18.0936 63.8407 17.3961 64.485C16.3659 63.2979 15.0771 62.3972 13.4625 63.619C12.1736 64.5936 12.1644 65.5427 13.0029 67.7598H17.0427V70.522H13.0329C12.8481 71.1617 12.6749 71.7552 12.5571 72.1709C13.6819 72.6444 14.7768 73.0462 15.8162 73.5589C16.9734 74.1317 18.0821 74.0855 19.2393 73.4712C19.6504 74.2841 20.0362 75.0485 20.4658 75.9007C18.7935 76.8869 17.0935 76.9654 15.3265 76.3626C15.0563 76.2702 14.7745 76.1663 14.5458 76C13.1946 75.0139 11.781 75.0023 10.3004 75.6536C9.98628 75.7922 9.64674 75.873 9.31875 75.9792C8.5519 76.224 7.94211 76.0116 7.57485 75.2933C7.21915 74.5959 7.52173 74.0693 8.02757 73.5312C8.72282 72.7876 9.32798 71.9584 9.95163 71.1501C10.0486 71.0254 10.0486 70.8291 10.1272 70.5427V70.5404Z" fill="#6315FF"/>
</g>
<defs>
<clipPath id="clip0_1462_96">
<rect x="0.5" width="83" height="83" rx="4" fill="white"/>
</clipPath>
</defs>
</svg>
