<svg width="84" height="83" viewBox="0 0 84 83" fill="none" xmlns="http://www.w3.org/2000/svg">
<g clip-path="url(#clip0_1462_391)">
<path d="M54.0167 83H29.9388V82.0606C29.9388 76.5624 29.9499 71.0643 29.9165 65.5684C29.9142 65.1568 29.7066 64.6423 29.4163 64.3515C23.7831 58.6678 18.1253 53.0063 12.4542 47.3605C12.1952 47.1011 11.7531 46.8953 11.3914 46.8886C5.57062 46.7655 0.995729 42.6229 0.533551 37.0174C0.0736058 31.4276 3.92062 26.6005 9.66994 25.5514C9.69673 25.5469 9.72129 25.5313 9.77488 25.5111C9.91107 24.2585 9.99592 22.9835 10.1924 21.7264C11.7799 11.6696 20.1504 3.72661 30.2648 2.80727C38.5773 2.05122 45.3648 5.03292 50.5894 11.5488C50.9377 11.985 51.19 12.1192 51.7527 11.9C52.6815 11.5376 53.6594 11.2983 54.6285 11.0522C55.1911 10.9091 55.3117 10.6272 55.0415 10.1463C54.5927 9.3433 54.106 8.56041 53.6974 7.73725C53.5992 7.54041 53.6371 7.1266 53.7822 6.97449C55.3697 5.33265 56.9929 3.72437 58.6452 2.06688C59.5695 2.59253 60.4559 3.10477 61.3512 3.60358C62.0523 3.99503 62.6485 3.74226 62.8695 2.96161C63.1508 1.97517 63.421 0.984247 63.6934 -0.00219727H71.0748C71.3472 0.968589 71.6129 1.93266 71.8853 2.8945C72.1354 3.77582 72.707 4.00845 73.5085 3.56332C73.5331 3.5499 73.5554 3.53424 73.58 3.52082C74.4351 3.0645 75.3372 2.18543 76.1298 2.27714C76.8733 2.36214 77.5074 3.46713 78.1794 4.13147C79.2288 5.16713 80.2693 6.21173 81.3477 7.28541C80.8833 8.10409 80.5104 8.92277 79.9924 9.63632C79.3159 10.5691 79.5995 11.4392 80.8587 11.6607C81.5687 11.7859 82.2676 11.9962 82.9508 12.2288C83.1495 12.2959 83.4108 12.5755 83.413 12.7612C83.4442 15.0718 83.4331 17.3847 83.4331 19.7446C82.4574 20.0175 81.5219 20.2769 80.5863 20.5387C79.595 20.816 79.3829 21.3462 79.9009 22.2633C80.2849 22.9433 80.6533 23.6322 81.0686 24.2921C81.3075 24.6723 81.2673 24.9251 80.9346 25.2181C80.2068 25.8601 79.5057 26.5334 78.9051 27.0903C79.7357 28.0007 80.5149 28.7277 81.1423 29.5688C83.7367 33.0448 84.2324 36.8429 82.3547 40.7507C80.4836 44.645 77.2394 46.6805 72.9057 46.8416C72.2068 46.8684 71.729 47.0675 71.2445 47.5552C65.743 53.0958 60.2282 58.623 54.6932 64.1279C54.173 64.6446 53.9877 65.1613 53.9899 65.8793C54.0167 71.2656 54.0033 76.6519 54.0033 82.0382V83H54.0167ZM50.1585 15.555C44.4159 5.78226 33.1227 3.25463 24.6338 6.99239C15.5979 10.9695 12.2287 19.9392 12.6551 25.4821C16.2878 26.3746 18.9537 28.0589 19.8981 30.0832C19.2216 30.553 18.5406 31.0294 17.8663 31.4969C14.0774 27.8397 10.6099 27.1306 7.08219 29.2668C3.94965 31.1636 2.49613 34.8745 3.5098 38.3864C4.3828 41.4106 7.4305 44.0366 10.0004 43.9628C10.0093 43.8867 10.0339 43.8062 10.0227 43.7324C9.61858 41.2003 10.5988 39.1022 12.6819 38.0419C14.7293 36.9995 17.0224 37.4201 18.8019 39.1737C19.6168 39.9768 20.4139 40.7954 21.2266 41.5985C22.0974 42.4596 22.8431 43.6317 23.8925 44.0724C24.9129 44.5019 26.2503 44.182 27.447 44.1842C28.7487 44.1887 30.0482 44.1842 31.3275 44.1842C32.3792 38.1783 36.8826 35.1765 41.1472 34.8387C43.4625 34.6553 45.6327 35.1832 47.6042 36.4269C50.4532 38.2253 52.0563 40.8625 52.6101 44.1842C54.9343 44.1842 57.1894 44.2111 59.4422 44.1596C59.8531 44.1507 60.351 43.9292 60.6502 43.6429C62.26 42.0995 63.7939 40.4778 65.4059 38.9344C66.8527 37.5498 68.5965 37.1226 70.5055 37.7422C72.3698 38.3461 73.5755 39.6524 73.9372 41.5985C74.0801 42.3657 73.9595 43.1799 73.9595 43.974C77.2015 43.9852 80.5461 40.366 80.7493 36.6439C80.986 32.3268 77.8758 28.6405 73.5554 28.1461C70.0188 27.7413 65.1447 30.0072 64.6401 36.1003H62.1037C61.6482 30.9399 65.8279 26.5915 72.3721 25.3635C71.3048 16.8546 60.3778 9.48869 50.154 15.5528L50.1585 15.555ZM42.0023 72.9074C40.7609 71.6615 39.5753 70.523 38.4612 69.3196C38.1821 69.0198 37.9722 68.5009 37.9967 68.1005C38.1374 65.7898 38.3585 63.4837 38.5527 61.1775C38.6934 59.4864 38.8318 57.7931 38.9769 56.0305C38.2937 55.9276 37.6685 55.8046 37.0389 55.7464C32.8123 55.3572 29.2734 53.6282 26.3262 50.5368C23.3455 47.4075 20.233 44.4035 17.1787 41.3457C16.9621 41.1287 16.75 40.9028 16.5088 40.7149C15.1245 39.63 13.1977 40.2407 12.6707 41.925C12.3135 43.0658 12.8181 43.9069 13.5951 44.6831C19.7686 50.8545 25.9377 57.0304 32.0867 63.2287C32.3769 63.5217 32.589 64.0317 32.5935 64.4433C32.627 69.4404 32.6158 74.4352 32.6158 79.4323C32.6158 79.7276 32.6158 80.0228 32.6158 80.2957H51.3419C51.3419 74.981 51.3486 69.7334 51.3307 64.488C51.3307 63.94 51.4892 63.5597 51.8777 63.1795C54.0435 61.0455 56.1824 58.8847 58.3303 56.7351C62.3694 52.6887 66.4062 48.64 70.4497 44.5981C71.1664 43.8823 71.5928 43.0748 71.3249 42.0458C70.8225 40.1087 68.5898 39.5585 67.1073 41.0303C63.7425 44.3699 60.3979 47.7319 57.0532 51.0916C54.7446 53.4112 52.0206 54.93 48.772 55.4579C47.5216 55.6614 46.2668 55.8471 44.983 56.0462C45.0098 56.4376 45.0254 56.7418 45.05 57.046C45.3603 60.7167 45.6796 64.3851 45.9654 68.0557C45.9922 68.4069 45.9252 68.8789 45.7086 69.1138C44.5365 70.3821 43.3017 71.5922 42.0001 72.9119L42.0023 72.9074ZM33.9555 45.4928C33.9399 49.9173 37.5368 53.5476 41.9442 53.5633C46.3606 53.5789 49.9866 49.9754 50 45.5599C50.0156 41.1354 46.4209 37.5051 42.009 37.4916C37.5926 37.476 33.9689 41.0773 33.9533 45.4928H33.9555ZM58.3839 10.6675C59.0738 10.7346 59.804 10.7525 60.5095 10.8912C61.023 10.9918 61.3155 10.8263 61.6549 10.4707C63.1441 8.90488 64.9973 8.06383 67.1497 8.03028C70.3068 7.9833 72.7695 9.3433 74.3391 12.0812C75.8953 14.7945 75.777 17.5592 74.2007 20.2658C74.0489 20.5275 73.8926 20.8966 73.9618 21.1583C74.3235 22.554 74.7611 23.9319 75.1652 25.3165C75.3327 25.8936 76.1387 26.1643 76.5986 25.784C77.1099 25.359 77.6145 24.9251 78.1013 24.5135C77.6681 23.744 77.398 23.158 77.034 22.6368C76.6076 22.0262 76.5227 21.4916 76.9425 20.8183C77.2752 20.2837 77.398 19.6238 77.6927 19.0579C77.8356 18.7827 78.1169 18.4964 78.4005 18.3913C79.1708 18.1072 79.9768 17.9193 80.7493 17.6979V14.4075C80.2045 14.2487 79.6821 14.0272 79.1395 13.9579C78.1638 13.8326 77.8378 13.2175 77.3801 12.4055C76.4982 10.8397 76.6947 9.57369 77.7195 8.25396C77.849 8.08844 77.8981 7.6612 77.7842 7.54041C77.1233 6.8291 76.4982 5.94555 75.6631 5.59436C75.2255 5.40871 74.3815 6.18713 73.7229 6.5316C73.6246 6.58305 73.5331 6.67699 73.4326 6.68818C73.1803 6.71726 72.8945 6.7866 72.6735 6.70607C71.7648 6.36831 70.6417 6.19384 70.0411 5.54739C69.4472 4.90542 69.3869 3.76911 69.0899 2.84753C69.0743 2.79608 69.0363 2.75358 69.0006 2.69095H65.7542C65.5801 3.30608 65.3568 3.88542 65.2563 4.48489C65.1246 5.28121 64.7807 5.7666 63.9412 5.94778C63.383 6.06857 62.8829 6.4466 62.327 6.60541C61.9786 6.70607 61.5254 6.72397 61.2061 6.58081C60.4827 6.2587 59.8129 5.81581 59.2078 5.47134C58.3616 6.29449 57.6069 7.02594 56.821 7.7887C57.3323 8.72817 57.8458 9.66764 58.3929 10.6697L58.3839 10.6675ZM64.1824 11.8351C67.5114 13.1705 70.146 15.262 72.2336 18.1005C73.2763 16.1858 72.6221 13.3629 70.7377 11.8754C68.7997 10.3454 66.1405 10.2917 64.1846 11.8351H64.1824ZM42.1474 69.1004C42.5248 68.5143 43.2124 67.9394 43.1834 67.4048C42.9869 63.8505 42.6319 60.3051 42.3439 56.7553C42.3037 56.243 42.105 56.1446 41.6384 56.3437C41.3593 59.7079 41.1494 63.0698 40.7676 66.4117C40.6314 67.6173 41.0154 68.3644 42.1452 69.1004H42.1474ZM26.5338 46.8953C28.6951 49.065 30.5573 51.3354 33.2946 52.1496C32.598 50.4787 31.8679 48.7317 31.102 46.8953H26.5361H26.5338ZM50.6497 52.1675C53.4138 51.2884 55.296 49.0673 57.3814 46.9177H52.8512C52.0742 48.7675 51.3508 50.4921 50.6475 52.1675H50.6497Z" fill="#6315FF"/>
<path d="M56.2046 35.6193C55.6799 35.0847 55.0972 34.492 54.4609 33.8455C54.9632 33.3199 55.4678 32.792 56.0573 32.1724H28.0542C28.0118 32.2194 27.9671 32.2663 27.9247 32.3155C28.4963 32.7763 29.0679 33.2349 29.664 33.7136C28.8803 34.483 28.2864 35.0646 27.7617 35.5791C26.143 33.9574 24.5175 32.3312 22.9524 30.7632C24.4841 29.2332 26.1117 27.607 27.7595 25.9607C28.2864 26.4908 28.8714 27.0813 29.5702 27.7837C28.9897 28.2356 28.4204 28.6784 27.851 29.1213C27.9091 29.2041 27.9649 29.2891 28.023 29.3719H56.1488C55.4589 28.8104 54.8896 28.3474 54.2822 27.8531C55.086 27.106 55.6933 26.5378 56.227 26.0412C57.81 27.6271 59.4332 29.2533 61.005 30.8258C59.4823 32.3469 57.8524 33.973 56.2046 35.6171V35.6193Z" fill="#6315FF"/>
<path d="M18.018 22.9454C17.1986 22.8067 16.3881 22.6703 15.5798 22.5338C16.426 14.772 24.0419 7.80649 32.5688 8.08162V10.6003C24.8055 11.1998 19.927 15.273 18.018 22.9431V22.9454Z" fill="#6315FF"/>
<path d="M37.53 11.4951C36.6637 11.267 35.9179 11.0701 35.0896 10.8509C35.2236 10.0277 35.3575 9.21801 35.5161 8.23828C36.4784 8.47762 37.3893 8.70354 38.4142 8.95854C38.0971 9.8667 37.8202 10.6608 37.5278 11.4951H37.53Z" fill="#6315FF"/>
</g>
<defs>
<clipPath id="clip0_1462_391">
<rect x="0.5" width="83" height="83" rx="4" fill="white"/>
</clipPath>
</defs>
</svg>
