<svg width="84" height="83" viewBox="0 0 84 83" fill="none" xmlns="http://www.w3.org/2000/svg">
<g clip-path="url(#clip0_1462_192)">
<path d="M33.9699 83C33.9699 81.5184 33.9989 80.1487 33.9543 78.7834C33.9386 78.3022 33.8291 77.7875 33.6258 77.3533C32.7924 75.5897 31.9143 73.8462 31.0385 72.1027C30.2989 70.6278 29.9191 69.0768 29.9526 67.4228C29.9683 66.6686 29.8945 65.9099 29.966 65.1623C30.2699 61.991 29.5236 59.1016 27.9239 56.3577C27.4926 55.6191 27.2938 54.594 27.3742 53.7368C27.5351 52.0448 29.0299 50.8743 30.7436 50.8519C33.5052 50.8161 35.8422 51.8501 37.909 53.8241V42.844C37.2365 42.844 36.5483 42.844 35.8601 42.844C33.4069 42.844 30.9536 42.8709 28.5003 42.8328C25.1422 42.7813 22.4141 40.2881 21.965 36.9153C21.5449 33.7685 23.6072 30.6441 26.7196 29.713C26.8 29.6884 26.8805 29.6302 26.9564 29.637C28.621 29.8071 29.2689 28.773 30.0196 27.4615C31.825 24.2968 34.8078 22.6183 38.2754 21.8439C43.1954 20.745 47.7377 21.5955 51.7416 24.787C52.5683 25.445 55.0439 26.7588 56.0672 27.0296C59.9057 28.0524 62.4886 31.7654 62.035 35.6104C61.5546 39.6927 58.2657 42.7589 54.2194 42.8283C51.5204 42.8753 48.8213 42.8373 46.0664 42.8373V48.3945C47.5031 47.9849 48.8146 48.2401 49.9586 49.1801C53.1693 47.4903 54.9143 47.9894 56.5855 51.031C57.4279 51.031 58.2769 50.8944 59.0634 51.0601C60.7905 51.4226 62.0417 52.9714 62.0529 54.7373C62.0842 59.8759 62.0953 65.0146 62.0395 70.1533C62.0194 72.1005 61.3893 73.9558 60.0778 75.3838C58.3931 77.2168 57.7027 79.2534 58.049 81.6907C58.1071 82.1003 58.0579 82.5233 58.0579 83H33.9721H33.9699ZM48.6873 57.5528C48.6873 55.7534 48.7431 54.0479 48.6493 52.3514C48.6247 51.8904 48.2337 51.313 47.8382 51.0578C47.55 50.8721 46.8484 50.975 46.5669 51.2212C46.2452 51.4987 46.053 52.0739 46.0374 52.5283C45.9771 54.1912 46.0128 55.8586 46.0128 57.5304H43.3361V56.5591C43.3361 49.997 43.3361 43.4349 43.3361 36.8705C43.3361 36.6467 43.3451 36.4229 43.3316 36.2013C43.2825 35.3531 42.7328 34.7913 41.9732 34.8047C41.247 34.8182 40.7175 35.362 40.6639 36.1633C40.6482 36.4139 40.6594 36.6668 40.6594 36.9175C40.6594 46.134 40.6594 55.3483 40.6594 64.5648C40.6594 64.8871 40.6594 65.2093 40.6594 65.5428H37.9782C37.9782 63.7993 38.0095 62.1029 37.9715 60.4064C37.8956 57.0179 35.3663 54.1061 32.0372 53.6249C31.4273 53.5376 30.5961 53.56 30.1761 53.9069C29.5504 54.4262 30.2543 55.0797 30.5067 55.6213C31.2932 57.3088 32.3835 58.9001 32.4953 60.8182C32.6226 62.9891 32.6159 65.1691 32.6226 67.3445C32.6271 68.6292 32.8907 69.8288 33.4649 70.9725C34.1419 72.3176 34.7497 73.7007 35.487 75.01C36.3271 76.5028 36.8901 78.0292 36.6511 79.7727C36.6287 79.9271 36.6756 80.0927 36.698 80.3121H55.3813C55.3813 79.6585 55.4282 79.043 55.3701 78.4388C55.2896 77.6062 55.5399 76.9415 56.0717 76.3014C56.8023 75.424 57.4636 74.4863 58.1317 73.5597C58.936 72.4429 59.3829 71.1873 59.3874 69.8109C59.4052 64.9229 59.3985 60.0371 59.3941 55.1491C59.3941 54.1688 58.8601 53.5667 58.049 53.5735C57.2402 53.5802 56.7352 54.18 56.7241 55.1692C56.7151 55.966 56.7241 56.7627 56.7241 57.5438H54.0474C54.0474 55.8295 54.0541 54.1621 54.0451 52.4924C54.0407 51.5032 53.529 50.9012 52.7224 50.8922C51.9114 50.8833 51.3885 51.4853 51.3751 52.4656C51.3662 53.0788 51.3751 53.6943 51.3751 54.3075C51.3751 55.3863 51.3751 56.4628 51.3751 57.5506H48.6984L48.6873 57.5528ZM46.0128 40.1516C48.8995 40.1516 51.6589 40.1963 54.4138 40.1337C55.8661 40.1001 57.095 39.4309 58.0579 38.3275C59.5728 36.593 59.8186 34.149 58.6947 32.1638C57.5664 30.1674 55.4036 29.1446 53.0978 29.5609C52.499 29.6705 52.1393 29.5698 51.822 28.9924C51.0065 27.5108 49.7843 26.4029 48.2896 25.6419C44.1338 23.5247 39.9243 23.4844 35.7752 25.6017C33.2281 26.902 31.5524 28.9364 31.2642 31.9153C31.2418 32.1548 31.1502 32.3876 31.0876 32.6338C30.2967 32.457 29.575 32.213 28.8355 32.1436C26.6905 31.9444 24.7333 33.7081 24.6059 35.8813C24.4741 38.1485 26.2169 40.1001 28.4914 40.1471C30.6363 40.1918 32.7835 40.1583 34.9307 40.1605C35.9249 40.1605 36.9192 40.1605 37.9805 40.1605C37.9805 38.8154 37.9738 37.5665 37.9805 36.3154C37.9961 33.9363 39.7031 32.1392 41.9508 32.119C44.2388 32.0989 45.9882 33.9028 46.0061 36.3154C46.015 37.5665 46.0061 38.8154 46.0061 40.1471L46.0128 40.1516Z" fill="#6315FF"/>
<path d="M7.20735 33.2045C7.614 31.564 6.86774 30.6732 5.50928 29.7355C1.06748 26.667 -0.60825 20.933 1.24399 15.9129C3.1141 10.8392 8.13235 7.60288 13.4858 8.01469C18.6827 8.41531 23.1156 12.2268 24.2752 17.2894C25.4616 22.4728 23.2095 27.7749 18.6425 30.4226C18.0862 30.7448 17.8583 31.0694 17.8963 31.7139C17.9544 32.7435 17.9253 33.7797 17.9074 34.8115C17.8561 37.8262 15.4743 40.1807 12.5094 40.1583C9.59136 40.1359 7.25874 37.777 7.20959 34.7936C7.20065 34.2631 7.20959 33.7327 7.20959 33.2023L7.20735 33.2045ZM13.8991 29.2453C17.2818 29.0372 21.9895 25.6599 21.9158 19.8833C21.851 14.7984 17.6438 10.6736 12.5607 10.6713C7.51345 10.6713 3.30625 14.7626 3.20124 19.7938C3.07835 25.6308 7.82402 29.0215 11.2202 29.2453C11.2202 27.71 11.2023 26.1791 11.2291 24.6505C11.238 24.1022 11.1196 23.7776 10.57 23.4912C9.06629 22.7056 8.28205 20.9218 8.6105 19.3126C8.99033 17.4684 10.5253 16.1211 12.344 16.036C14.1918 15.9488 15.8787 17.1439 16.3971 18.9031C16.9333 20.7249 16.1647 22.5735 14.489 23.5605C14.2566 23.6971 13.9259 23.9433 13.9214 24.1447C13.8768 25.8434 13.8946 27.5421 13.8946 29.2453H13.8991ZM9.90863 31.9892C9.90863 32.9785 9.82819 34.0953 9.92874 35.1964C10.0494 36.5147 11.2783 37.4972 12.5943 37.4793C13.908 37.4614 15.0989 36.4453 15.2017 35.1248C15.2844 34.0483 15.2173 32.9606 15.2173 31.9892H9.90639H9.90863ZM11.2269 19.9885C11.1911 20.7092 11.7698 21.3493 12.4937 21.3873C13.2109 21.4232 13.8522 20.8412 13.8902 20.1183C13.9259 19.3977 13.345 18.7576 12.6233 18.7195C11.9016 18.6837 11.2649 19.2634 11.2291 19.9885H11.2269Z" fill="#6315FF"/>
<path d="M83.4196 21.3649H64.7966V5.34011H70.054V2.64991H75.4141V0.0134277H83.4173V21.3649H83.4196ZM80.7473 18.6747V2.69244H78.169V18.6725H80.7473V18.6747ZM72.8089 18.6702H75.4007V5.36697H72.8089V18.6702ZM67.4823 8.02583V18.6456H70.054V8.02583H67.4823Z" fill="#6315FF"/>
<path d="M64.7766 72.2772C64.7766 69.7459 64.6313 67.2549 64.8123 64.7885C65.0559 61.4671 66.8388 59.0164 69.7613 57.311C68.1034 55.7331 67.2298 53.8352 67.4622 51.5412C67.6365 49.8089 68.4006 48.3451 69.7144 47.1903C72.2816 44.932 76.1201 44.979 78.6315 47.291C81.5182 49.9499 81.4869 53.3898 78.5332 57.3378C82.0433 59.4349 83.6386 62.5437 83.4934 66.617C83.4286 68.4813 83.4822 70.3502 83.4822 72.2772H64.7766ZM67.5583 69.5959H80.7988C80.7988 68.1725 80.8278 66.8072 80.7943 65.442C80.7116 62.0401 78.0215 59.2111 74.6567 58.947C71.2561 58.6807 68.1034 60.9949 67.603 64.3722C67.3527 66.0575 67.5605 67.8122 67.5605 69.5937L67.5583 69.5959ZM78.1243 52.2059C78.1131 50.017 76.319 48.2176 74.1338 48.2086C71.9129 48.1997 70.092 50.0237 70.1009 52.2484C70.1099 54.435 71.9085 56.2367 74.0914 56.2479C76.3101 56.2591 78.1355 54.4305 78.1243 52.2059Z" fill="#6315FF"/>
<path d="M19.2481 73.6783C19.2481 74.4863 19.2682 75.1555 19.2436 75.8247C19.1922 77.2078 18.5398 78.2239 17.2685 78.77C15.9547 79.334 14.7437 79.052 13.7271 78.0739C12.4424 76.8363 11.1778 75.5762 9.95113 74.2804C9.5065 73.8104 9.04623 73.6447 8.41839 73.6649C7.16718 73.7074 5.9115 73.6873 4.65805 73.6738C2.25841 73.6515 0.531291 71.9527 0.52012 69.5692C0.502245 66.0531 0.502245 62.537 0.52012 59.021C0.531291 56.6307 2.25394 54.9163 4.65135 54.9118C9.91538 54.8984 15.1794 54.9006 20.4434 54.9118C22.8855 54.9163 24.5881 56.6285 24.5992 59.0837C24.6126 62.5147 24.6082 65.9479 24.5992 69.3812C24.5925 71.993 22.919 73.6627 20.3116 73.6783C19.9832 73.6783 19.657 73.6783 19.2458 73.6783H19.2481ZM16.5736 70.9971C17.8807 70.9971 19.076 71.0038 20.2714 70.9971C21.4288 70.9904 21.9203 70.5181 21.9248 69.3879C21.9337 65.9815 21.9337 62.5751 21.9248 59.1665C21.9225 58.081 21.4243 57.5976 20.3205 57.5953C15.1369 57.5886 9.95113 57.5886 4.76754 57.5953C3.6839 57.5953 3.20129 58.0944 3.19905 59.2C3.19235 62.6064 3.19012 66.0128 3.19905 69.4214C3.20129 70.5069 3.6973 70.9881 4.80105 70.9948C6.47231 71.006 8.14581 70.9702 9.81707 71.0195C10.1835 71.0306 10.6237 71.2164 10.8895 71.4715C12.3955 72.9218 13.85 74.4281 15.347 75.8896C15.557 76.0932 15.9011 76.1604 16.1826 76.2902C16.3144 75.9836 16.549 75.6792 16.558 75.3681C16.5982 73.9491 16.5758 72.5279 16.5758 70.9993L16.5736 70.9971Z" fill="#6315FF"/>
<path d="M43.2869 18.6747H40.6862V16.0695H26.009V13.4106H43.2847V18.6747H43.2869Z" fill="#6315FF"/>
<path d="M72.7687 32.1457V24.1445H75.394V34.7509H64.7877V32.1457H72.7709H72.7687Z" fill="#6315FF"/>
<path d="M24.568 44.2292V49.5201H13.9126V52.1857H11.285V46.8948H21.9114V44.2292H24.568Z" fill="#6315FF"/>
<path d="M75.4118 37.542V42.8038H72.8044V40.174H64.7877V37.5442H75.4118V37.542Z" fill="#6315FF"/>
<path d="M8.39823 6.04743C7.57377 6.46148 6.83645 6.83076 6.01199 7.24481C5.10933 5.43866 4.23572 3.69071 3.33752 1.89351C4.12623 1.49513 4.86356 1.1236 5.71929 0.69165C6.60631 2.46423 7.47993 4.20995 8.39823 6.04743Z" fill="#6315FF"/>
<path d="M21.7751 1.89335C20.8746 3.69726 20.01 5.42731 19.1073 7.2357C18.2962 6.83508 17.5366 6.46131 16.7144 6.05622C17.6103 4.2635 18.4817 2.51554 19.3888 0.700439C20.1999 1.10554 20.935 1.47482 21.7751 1.89335Z" fill="#6315FF"/>
<path d="M13.85 5.26849H11.2805V0H13.85V5.26849Z" fill="#6315FF"/>
<path d="M19.2101 60.3303V62.9109H5.93384V60.3303H19.2101Z" fill="#6315FF"/>
<path d="M13.8589 65.6929V68.2734H5.93604V65.6929H13.8589Z" fill="#6315FF"/>
<path d="M16.6339 65.6704H19.2034V68.2487H16.6339V65.6704Z" fill="#6315FF"/>
</g>
<defs>
<clipPath id="clip0_1462_192">
<rect x="0.5" width="83" height="83" rx="4" fill="white"/>
</clipPath>
</defs>
</svg>
