<svg width="84" height="83" viewBox="0 0 84 83" fill="none" xmlns="http://www.w3.org/2000/svg">
<g clip-path="url(#clip0_1462_525)">
<path d="M32.6379 72.2944V66.9361H31.6659C23.6935 66.9361 15.7233 66.9361 7.75083 66.9361C3.34231 66.9361 0.54257 64.1373 0.54257 59.729C0.54257 46.7611 0.61854 33.7933 0.500116 20.8277C0.459896 16.2763 3.79813 13.0774 7.93405 13.3881C8.0994 13.4015 8.26698 13.3881 8.56863 13.3881C8.56863 13.0707 8.56863 12.7801 8.56863 12.4872C8.56863 10.1735 8.55969 7.8576 8.57086 5.54391C8.5865 2.30698 10.8723 0.0089418 14.1055 0.00670635C23.8052 -0.00223545 33.5048 -0.00223545 43.2045 0.00670635C46.3908 0.0089418 48.6878 2.30922 48.7079 5.49026C48.7235 8.08115 48.7101 10.672 48.7101 13.3881C49.0676 13.3881 49.3894 13.3881 49.7089 13.3881C58.5729 13.3881 67.4368 13.3881 76.3008 13.3881C80.7048 13.3881 83.4979 16.1891 83.4979 20.6041C83.4979 33.6547 83.4979 46.7052 83.4979 59.7558C83.4979 64.1127 80.687 66.9316 76.3455 66.9338C68.4021 66.9361 60.4587 66.9338 52.5131 66.9338H51.4495V72.2877C52.236 72.2877 53.0337 72.2855 53.8314 72.2877C57.1227 72.3034 59.3951 74.5724 59.413 77.8652C59.4197 79.0366 59.4219 80.2079 59.413 81.3793C59.4041 82.4858 58.9281 82.9911 57.8511 82.9911C47.2868 82.9978 36.7224 82.9978 26.1603 82.9911C25.128 82.9911 24.6409 82.4791 24.6319 81.433C24.6185 80.123 24.6051 78.8108 24.6364 77.5008C24.7057 74.6573 26.9848 72.3727 29.8225 72.2944C30.7364 72.2698 31.6503 72.29 32.6379 72.29V72.2944ZM48.7123 16.0662V17.175C48.7123 26.461 48.7123 35.7448 48.7123 45.0309C48.7123 48.6635 46.5114 50.8699 42.8872 50.8699C33.411 50.8699 23.9348 50.8699 14.4586 50.8699C10.7651 50.8699 8.5731 48.6881 8.57086 45.0108C8.57086 35.6979 8.57086 26.385 8.57086 17.0721C8.57086 16.7502 8.57086 16.4283 8.57086 16.1243C4.98014 15.628 3.14568 17.9305 3.17696 20.9126C3.28421 31.4528 3.21941 41.9929 3.21941 52.5331V53.4876H80.8255C80.8255 53.1478 80.8255 52.8706 80.8255 52.5934C80.8255 41.9147 80.8255 31.2337 80.8255 20.555C80.8255 17.66 79.2212 16.0684 76.3142 16.0684C67.4502 16.0684 58.5885 16.0684 49.7245 16.0684C49.4229 16.0684 49.1212 16.0684 48.7123 16.0684V16.0662ZM3.21718 56.2551C3.21718 57.4108 3.21718 58.4928 3.21718 59.5747C3.21718 62.7155 4.74999 64.258 7.86478 64.258C29.6527 64.258 51.4428 64.258 73.2307 64.258C74.4283 64.258 75.6282 64.2736 76.8259 64.2535C78.7832 64.22 80.4658 62.9346 80.7093 61.0032C80.9037 59.4518 80.7495 57.8579 80.7495 56.2551H3.21718ZM11.2455 25.4394C11.2455 31.9938 11.2455 38.5459 11.2455 45.1002C11.2455 47.1456 12.2889 48.1963 14.3223 48.1963C23.8543 48.1963 33.3886 48.1963 42.9207 48.1963C45.0188 48.1963 46.0333 47.1725 46.0355 45.0532C46.0355 31.9736 46.0355 18.8963 46.0355 5.81664C46.0355 3.71085 45.0121 2.68254 42.9162 2.68254C33.411 2.68254 23.9057 2.68254 14.4005 2.68254C12.2398 2.68254 11.2477 3.68402 11.2477 5.86358C11.2477 12.3889 11.2477 18.9141 11.2477 25.4394H11.2455ZM27.3043 80.2638H56.7406C56.7406 79.4859 56.7406 78.7638 56.7406 78.0418C56.7339 76.0098 55.6882 74.968 53.6437 74.968C47.0946 74.968 40.5455 74.968 33.9986 74.968C32.6602 74.968 31.324 74.9479 29.9856 74.9747C28.4617 75.0038 27.3535 76.1036 27.311 77.617C27.2864 78.4777 27.3065 79.3406 27.3065 80.2638H27.3043ZM35.3683 72.2318H48.6431V66.9785H35.3683V72.2318Z" fill="#6315FF"/>
<path d="M72.795 34.8954C72.795 38.7694 72.7994 42.6457 72.795 46.5197C72.7905 49.2 71.1415 50.8655 68.4848 50.8699C65.113 50.8766 61.7413 50.8766 58.3695 50.8699C55.7508 50.8655 54.0682 49.1978 54.066 46.5957C54.0615 38.7337 54.0593 30.8716 54.066 23.0118C54.066 20.4142 55.7575 18.7488 58.3762 18.7465C61.748 18.742 65.1197 18.742 68.4915 18.7465C71.1102 18.751 72.7905 20.4142 72.795 23.0185C72.8039 26.9774 72.795 30.9364 72.795 34.8954ZM56.7406 42.7821H70.1204V42.0645C70.1204 35.7672 70.1204 29.47 70.1204 23.1727C70.1204 21.865 69.6735 21.4224 68.3619 21.4224C65.1041 21.4201 61.844 21.4201 58.5862 21.4224C57.1584 21.4224 56.7428 21.8359 56.7406 23.2532C56.7406 27.8515 56.7406 32.4476 56.7406 37.0459V42.7821ZM56.7406 45.5496C56.7406 45.943 56.7361 46.2716 56.7406 46.6002C56.7607 47.6934 57.2344 48.1874 58.3203 48.1896C61.7413 48.1986 65.1644 48.2008 68.5853 48.1896C69.6154 48.1852 70.0935 47.6799 70.1181 46.636C70.1271 46.285 70.1181 45.9318 70.1181 45.5496H56.7384H56.7406Z" fill="#6315FF"/>
<path d="M35.3682 61.524V58.9487H48.6429V61.524H35.3682Z" fill="#6315FF"/>
<path d="M13.9221 22.7613C13.9221 17.5751 13.9221 12.3866 13.9221 7.20037C13.9221 5.77415 14.3355 5.3606 15.7588 5.3606C24.3435 5.3606 32.9304 5.3606 41.5151 5.3606C42.9384 5.3606 43.3562 5.77639 43.3562 7.20037C43.3562 17.5751 43.3562 27.9498 43.3562 38.3223C43.3562 39.7463 42.9384 40.1643 41.5173 40.1643C32.9326 40.1643 24.3457 40.1643 15.7611 40.1643C14.3377 40.1643 13.9221 39.7463 13.9221 38.3245C13.9221 33.1383 13.9221 27.9498 13.9221 22.7636V22.7613ZM16.6347 37.4415H40.6325V8.09455H16.6347V37.4415Z" fill="#6315FF"/>
<path d="M24.6787 42.8557H32.5886V45.46H24.6787V42.8557Z" fill="#6315FF"/>
<path d="M66.0624 26.7428H60.8115V24.1497H66.0624V26.7428Z" fill="#6315FF"/>
<path d="M20.612 24.06C20.612 21.9431 20.6031 19.8261 20.6143 17.7091C20.621 16.3053 21.5304 15.7106 22.7682 16.3254C27.0762 18.4625 31.373 20.6241 35.6765 22.7702C36.2351 23.0496 36.6552 23.4229 36.6574 24.0958C36.6597 24.7687 36.2441 25.1442 35.6832 25.4237C31.3797 27.5697 27.0829 29.7314 22.775 31.8685C21.5348 32.4832 20.621 31.893 20.6143 30.4959C20.6031 28.3499 20.612 26.2061 20.612 24.06ZM23.3112 28.6226C26.35 27.098 29.2704 25.6315 32.3338 24.0936C29.2168 22.5354 26.3009 21.0757 23.3112 19.5824V28.6226Z" fill="#6315FF"/>
</g>
<defs>
<clipPath id="clip0_1462_525">
<rect x="0.5" width="83" height="83" rx="4" fill="white"/>
</clipPath>
</defs>
</svg>
