<svg width="84" height="83" viewBox="0 0 84 83" fill="none" xmlns="http://www.w3.org/2000/svg">
<g clip-path="url(#clip0_1462_128)">
<path d="M83.3932 66.1226C83.3237 68.212 81.5413 69.6611 79.1183 69.6849C78.6864 69.6893 78.2569 69.6849 77.6785 69.6849V70.5739C77.6785 72.7325 77.6909 74.8911 77.676 77.0497C77.6562 79.9523 75.196 82.1477 71.9911 82.1412C68.7986 82.1347 66.3608 79.9264 66.3459 77.0151C66.3335 74.6661 66.3384 72.3194 66.3359 69.9726C66.3359 69.9185 66.3136 69.8666 66.2739 69.6849C65.8543 69.6849 65.4075 69.6893 64.9582 69.6849C62.3888 69.6655 60.6485 68.1709 60.6163 65.9279C60.5939 64.3079 60.5914 62.69 60.6187 61.07C60.6535 58.8682 62.3664 57.3887 64.8961 57.3433C65.3256 57.3346 65.7575 57.3433 66.3434 57.3433V6.18584C66.3434 2.55213 67.2073 1.41227 70.9882 0.0539551H73.0337C73.138 0.103702 73.2373 0.170753 73.349 0.201034C76.1344 0.927776 77.6735 2.69056 77.676 5.21469C77.6835 14.7402 77.6785 24.2635 77.6785 33.7891V44.2295C77.6785 44.4133 77.6884 44.6015 77.676 44.7832C77.6785 48.7435 77.6785 55.5827 77.6785 57.3433C78.2321 57.3433 78.746 57.3325 79.2549 57.3455C81.5835 57.4039 83.3113 58.8335 83.3907 60.8624C83.4578 62.6143 83.4503 64.3706 83.3932 66.1226ZM74.9055 44.3052C74.9055 44.236 74.908 44.1689 74.908 44.0997V42.5143C74.908 30.1186 74.908 17.725 74.9055 5.32716C74.9055 3.57519 73.7164 2.44182 71.934 2.47427C70.4569 2.50022 69.2231 3.52328 69.1263 4.81455C69.1064 5.08275 69.1163 5.35312 69.1163 5.62348V57.2914H74.8584C74.8733 57.0167 74.9031 56.7333 74.9055 56.45C74.908 54.9857 74.9006 48.3845 74.9055 44.6123C74.9031 44.5993 74.9031 44.5864 74.9055 44.5734V44.3052ZM80.6401 65.7787C80.6501 64.269 80.6501 62.7592 80.6401 61.2495C80.6327 60.1875 80.1684 59.7528 78.9744 59.7485C74.3346 59.7376 69.6923 59.7376 65.05 59.7485C63.8559 59.7506 63.3892 60.1875 63.3818 61.2452C63.3718 62.7549 63.3718 64.2668 63.3818 65.7765C63.3892 66.8688 63.8609 67.2689 65.1394 67.2711C67.4282 67.2776 69.7171 67.2711 72.0085 67.2711C74.2998 67.2711 76.5887 67.2754 78.8775 67.2711C80.156 67.2689 80.6302 66.8666 80.6401 65.7787ZM74.9006 77.1124C74.9204 74.824 74.908 72.5357 74.9031 70.2473C74.9031 70.0721 74.846 69.8969 74.8162 69.7239H69.1163C69.1163 72.2393 69.1039 74.6618 69.1188 77.0843C69.1288 78.6351 70.365 79.7382 72.0407 79.7274C73.6668 79.7166 74.8906 78.62 74.9006 77.1124Z" fill="#6315FF"/>
<path d="M77.671 63.4775C77.6959 64.1978 77.0852 64.6888 76.0798 64.7017C74.7218 64.719 73.3639 64.7061 72.006 64.7061C70.6481 64.7061 69.2876 64.719 67.9297 64.7017C66.959 64.6888 66.3757 64.241 66.3508 63.5489C66.326 62.8222 66.9268 62.329 67.9421 62.3247C70.658 62.3074 73.3738 62.3095 76.0897 62.3247C77.0653 62.329 77.6462 62.7832 77.671 63.4775Z" fill="#6315FF"/>
<path d="M74.9053 44.5735C74.9031 44.5086 74.9031 44.4416 74.9053 44.3767V44.5735Z" fill="#6315FF"/>
<path d="M57.6423 33.5967C57.6622 34.345 57.0813 34.8317 56.0709 34.8382C53.3525 34.8533 50.6367 34.8533 47.9183 34.8382C46.9377 34.8317 46.3072 34.2975 46.3419 33.5837C46.3767 32.8872 46.9725 32.4438 47.9332 32.433C49.2912 32.42 50.6491 32.433 52.0095 32.433C53.3699 32.433 54.7254 32.4222 56.0833 32.433C57.0564 32.4438 57.6224 32.8807 57.6423 33.5967Z" fill="#6315FF"/>
<path d="M45.0063 37.4184C49.6809 37.4314 54.3554 37.4336 59.0275 37.4163C60.1148 37.412 60.5989 36.9556 60.6064 36.0039C60.6213 34.4401 60.6213 32.8763 60.6088 31.3125C60.6014 30.2657 60.1198 29.8569 58.9058 29.8525C56.5847 29.8461 54.2636 29.8504 51.9424 29.8504C49.6213 29.8504 47.3622 29.8439 45.0709 29.8525C43.909 29.8569 43.3977 30.2678 43.3803 31.2563C43.353 32.846 43.353 34.4379 43.3803 36.0277C43.3977 36.9664 43.919 37.4141 45.0063 37.4184ZM63.3768 31.1676C63.3917 32.7595 63.3843 34.3514 63.3793 35.9433C63.3694 38.262 61.7384 39.7328 59.0821 39.8236C58.6526 39.8388 58.2232 39.8258 57.6571 39.8258V40.9181C57.6571 52.8942 57.6596 64.8724 57.6547 76.8485C57.6522 79.4419 56.0708 81.3712 53.494 81.9703C49.9539 82.7923 46.5926 80.638 46.3369 77.3763C46.3121 77.054 46.322 76.7296 46.322 76.4051V39.8734C45.622 39.8431 45.0088 39.8431 44.4031 39.7847C42.211 39.5706 40.7091 38.2036 40.652 36.2916C40.5974 34.5136 40.5949 32.7314 40.652 30.9513C40.7165 28.9679 42.4195 27.5274 44.696 27.443C45.1875 27.4236 45.6816 27.4387 46.322 27.4387V26.4611C46.322 19.743 46.404 13.025 46.2848 6.31129C46.2302 3.21615 47.4044 1.03376 50.9196 0.0539551H52.9652C53.0422 0.0950506 53.1166 0.15345 53.2011 0.175079C56.185 0.936428 57.6497 2.61702 57.6522 5.33149C57.6621 12.3458 57.6571 19.358 57.6571 26.3724V27.4366C58.1934 27.4366 58.6452 27.4322 59.097 27.4387C61.6118 27.4755 63.3545 28.9852 63.3768 31.1676ZM54.8991 76.5544C54.909 64.6583 54.9065 52.7601 54.9065 40.864V39.882H49.0826V40.7212C49.0826 52.7255 49.0826 64.7318 49.0851 76.7361C49.0851 76.9783 49.0751 77.2227 49.1099 77.4628C49.2812 78.6481 50.3536 79.5954 51.642 79.7144C53.0099 79.8399 54.2983 79.1867 54.7079 78.0684C54.8817 77.5947 54.8991 77.0605 54.8991 76.5544ZM54.9065 26.6146C54.9065 19.5289 54.9065 12.441 54.904 5.35528C54.904 5.11303 54.8916 4.86862 54.8544 4.62854C54.6632 3.4 53.4766 2.48941 52.0566 2.4721C50.3263 2.45264 49.0875 3.59682 49.0875 5.26011C49.0801 12.428 49.0826 19.596 49.0851 26.7639C49.0851 26.9694 49.1273 27.1748 49.1521 27.4063H54.8643C54.8817 27.0927 54.9065 26.8526 54.9065 26.6146Z" fill="#6315FF"/>
<path d="M43.3505 45.9382C43.4051 47.6902 43.4051 49.4443 43.3505 51.1963C43.2884 53.2619 41.5581 54.7045 39.1774 54.7629C38.7182 54.7737 38.2614 54.7629 37.678 54.7629V55.6887C37.678 58.667 37.678 61.6453 37.6755 64.6237V64.654C37.7078 68.7722 37.7376 76.0504 37.5712 77.7743C37.3155 80.4584 34.6593 82.2861 31.6008 82.1326C28.6963 81.9876 26.3752 79.8896 26.3627 77.253C26.3255 70.1045 26.3454 62.9561 26.3454 55.8055V54.7629C25.7595 54.7629 25.2729 54.7737 24.7864 54.7608C22.3783 54.6959 20.6505 53.1797 20.6257 51.0924C20.6058 49.4746 20.6157 47.8545 20.6232 46.2367C20.6331 43.918 22.2765 42.4559 24.9427 42.3845C25.3697 42.3737 25.7967 42.3845 26.3454 42.3845V41.2663C26.3454 29.5303 26.3925 17.7964 26.3106 6.06039C26.2907 3.21615 27.2986 1.02078 31.0373 0.0539551H33.0804C33.5595 0.226989 34.056 0.367579 34.5103 0.577382C36.6974 1.58747 37.6805 3.21615 37.6805 5.34014C37.6805 9.81955 37.6805 14.2968 37.6805 18.7762V42.4018C38.3483 42.4018 38.8994 42.3694 39.448 42.4083C41.727 42.5619 43.2934 43.9505 43.353 45.9382H43.3505ZM40.6222 50.8891C40.6471 49.3513 40.6446 47.8156 40.6247 46.2778C40.6098 45.2179 40.1307 44.7897 38.9267 44.7854C34.3167 44.7745 29.7042 44.7745 25.0942 44.7854C23.8703 44.7854 23.4011 45.2071 23.3912 46.254C23.3813 47.7637 23.3837 49.2734 23.3912 50.7831C23.3961 51.949 23.8405 52.3448 25.1587 52.3469C27.4178 52.3534 29.6769 52.3469 31.936 52.3469C34.195 52.3469 36.5782 52.3534 38.8994 52.3469C40.1084 52.3426 40.6073 51.9317 40.6222 50.8891ZM34.9174 5.64295C34.9174 5.37258 34.9299 5.10222 34.9001 4.83401C34.7437 3.41081 33.4279 2.40938 31.8193 2.47643C30.1883 2.54348 29.0985 3.65306 29.0985 5.30769C29.091 17.3941 29.0935 29.4805 29.096 41.5691C29.096 41.8243 29.1332 42.0817 29.1506 42.3326H34.9174V5.64295ZM34.9125 77.0475C34.9299 75.6459 34.9174 69.4297 34.9174 65.4456V54.8192H29.1531C29.1332 55.0874 29.096 55.3447 29.096 55.6043C29.096 62.6727 29.091 69.7412 29.096 76.8096C29.0985 78.5681 30.1957 79.6906 31.9087 79.7252C33.6166 79.7598 34.8926 78.6416 34.9125 77.0475Z" fill="#6315FF"/>
<path d="M36.0818 47.3658C37.0599 47.3723 37.6954 47.9066 37.6557 48.6182C37.6209 49.3168 37.0301 49.7537 36.0644 49.7624C34.7065 49.7732 33.3485 49.7645 31.9906 49.7645C30.6327 49.7645 29.2723 49.7732 27.9143 49.7624C26.9362 49.7537 26.3777 49.3233 26.3578 48.603C26.3379 47.8503 26.9139 47.3702 27.9317 47.3658C30.6476 47.3507 33.3659 47.3507 36.0818 47.3658Z" fill="#6315FF"/>
<path d="M17.6492 18.6661C17.6641 19.3648 17.0857 19.8774 16.1373 19.886C13.3569 19.9077 10.579 19.9098 7.80109 19.8817C6.87015 19.8731 6.29173 19.3258 6.32897 18.6315C6.36869 17.9654 6.93718 17.5176 7.84081 17.5068C9.23101 17.4895 10.6187 17.5025 12.0089 17.5025C13.3991 17.5025 14.7248 17.4895 16.0827 17.5047C17.041 17.5155 17.6343 17.974 17.6492 18.6661Z" fill="#6315FF"/>
<path d="M9.09448 36.5771C9.09448 36.828 9.1069 37.0789 9.09448 37.3277V36.5771Z" fill="#6315FF"/>
<path d="M5.02308 22.4467C9.66536 22.4553 14.3076 22.4553 18.9499 22.4467C20.1415 22.4467 20.6107 22.0141 20.6182 20.9543C20.6281 19.4705 20.6256 17.9867 20.6182 16.5051C20.6132 15.3112 20.1639 14.9262 18.7687 14.9219C16.5394 14.9154 14.3126 14.9219 12.0833 14.9219C9.85403 14.9219 7.44104 14.9176 5.12238 14.9262C3.84389 14.9305 3.36973 15.335 3.36228 16.423C3.34987 17.9327 3.34987 19.4424 3.36228 20.9521C3.36725 22.0163 3.83396 22.4467 5.02308 22.4489V22.4467ZM23.3688 16.0553C23.4333 17.8072 23.4308 19.5635 23.3713 21.3155C23.2968 23.3768 21.5392 24.8173 19.1684 24.854C18.7091 24.8605 18.2474 24.854 17.6565 24.854V25.9312C17.6565 43.1999 17.659 60.4666 17.6565 77.7353C17.6565 80.785 15.1492 83.0129 11.8276 82.9436C8.94792 82.8853 6.51258 80.8435 6.33881 78.3366C6.31895 78.0425 6.32391 77.744 6.32391 77.4477V36.1661C6.31398 33.2786 6.32391 26.9434 6.32391 25.8468V24.854C5.77776 24.854 5.29367 24.8605 4.81207 24.854C2.43631 24.8173 0.678699 23.3724 0.609189 21.3155C0.552091 19.5635 0.549609 17.8072 0.609189 16.0531C0.678699 13.9962 2.45865 12.5405 4.81455 12.5167C5.27629 12.5124 5.73556 12.5167 6.32143 12.5167V10.5571C6.32143 8.82893 6.31895 7.10292 6.32143 5.37691C6.32639 2.66677 7.76624 0.977523 10.7403 0.18373C10.8247 0.162101 10.8917 0.0993765 10.9687 0.0539551H13.0118C13.2948 0.151287 13.5728 0.252944 13.8608 0.341624C16.1397 1.05106 17.6267 2.83547 17.6491 4.97244C17.6739 7.45115 17.6565 9.9277 17.6565 12.5167C18.1977 12.5167 18.6818 12.5124 19.1634 12.5167C21.5218 12.5405 23.2943 13.9918 23.3688 16.0553ZM14.8662 78.2977C14.8985 78.0035 14.8861 77.7051 14.8861 77.4087V24.9124H9.09438V37.3276C9.09438 50.7961 9.0919 64.2603 9.09438 77.7267C9.09687 79.4527 10.3356 80.5882 12.1255 80.5277C13.5182 80.4822 14.7297 79.5046 14.8662 78.2977ZM14.8662 12.467C14.8662 9.83685 14.9208 7.25649 14.8439 4.67828C14.8066 3.41081 13.409 2.45047 11.917 2.47427C10.4399 2.49806 9.14155 3.51679 9.11673 4.80373C9.06956 7.33219 9.10183 9.86281 9.10183 12.467H14.8662Z" fill="#6315FF"/>
</g>
<defs>
<clipPath id="clip0_1462_128">
<rect x="0.5" width="83" height="83" rx="4" fill="white"/>
</clipPath>
</defs>
</svg>
