<svg width="84" height="83" viewBox="0 0 84 83" fill="none" xmlns="http://www.w3.org/2000/svg">
<g clip-path="url(#clip0_1462_472)">
<path d="M53.5011 59.7431C54.5907 57.3315 55.7244 54.8159 56.8627 52.3049C57.7042 50.4523 59.1137 49.2419 61.1098 48.8169C62.8254 48.4519 64.4435 48.7938 65.9643 49.8887C67.1073 48.2532 68.5238 47.0636 70.6102 46.9712C72.655 46.8834 74.2337 47.745 75.4601 49.369C76.7931 48.6921 78.1586 48.4519 79.5913 48.8469C83.1963 49.8402 84.6708 54.1114 82.4475 57.1051C82.3455 57.2437 82.2412 57.3869 82.1183 57.507C76.3295 63.2289 70.754 69.1886 64.6916 74.6101C57.5419 81.0065 48.8738 83.5914 39.2806 82.8568C31.5653 82.2654 24.8074 79.3502 18.9885 74.2706C18.8819 74.1759 18.7659 74.0927 18.4901 73.8733C18.4901 74.9982 18.4901 75.98 18.4901 76.964C18.4854 78.4216 18.0519 78.849 16.5659 78.8513C15.3882 78.8513 14.2081 78.8513 12.9377 78.8513C12.9377 79.7799 12.9539 80.6369 12.9331 81.4916C12.9099 82.4225 12.4022 82.9838 11.5004 82.9908C7.8583 83.0116 4.21625 83 0.509273 83V80.2488H10.1187V52.6006H0.5V49.8032H4.93492C6.93098 49.8032 8.92704 49.8032 10.9208 49.8032C12.5343 49.8032 12.9308 50.189 12.9424 51.7667C12.9424 51.9954 12.9424 52.2218 12.9424 52.5706C14.127 52.5706 15.2722 52.5706 16.4175 52.5706C18.1238 52.5706 18.4738 52.924 18.4947 54.6519C18.4947 54.8228 18.5086 54.9938 18.5202 55.2294C19.225 54.9522 19.8695 54.6473 20.5487 54.4417C24.6336 53.2012 28.315 53.9704 31.5468 56.7494C32.3327 57.4262 33.0583 58.1769 33.77 58.9323C34.1549 59.3435 34.5582 59.5029 35.1262 59.5005C40.1871 59.4798 45.248 59.4751 50.3088 59.5005C51.3381 59.5052 52.3652 59.6576 53.5011 59.75V59.7431ZM33.8094 69.1655C34.185 69.1655 34.4956 69.1655 34.8086 69.1655C40.1871 69.1655 45.5656 69.1701 50.944 69.1632C52.5831 69.1632 53.879 68.2854 54.3844 66.8786C55.2074 64.5825 53.5289 62.261 51.0043 62.254C45.4241 62.2379 39.8417 62.2379 34.2615 62.261C33.508 62.2633 32.9401 62.0392 32.4208 61.4987C31.5027 60.54 30.5708 59.5883 29.5832 58.7059C26.6876 56.121 22.2202 55.9478 19.0812 58.2301C18.6315 58.5558 18.4785 58.9046 18.4854 59.4497C18.5156 61.6973 18.4924 63.9449 18.4993 66.1926C18.504 67.4561 18.1493 68.9068 18.65 69.937C19.2157 71.099 20.5047 71.956 21.5757 72.8245C29.0731 78.9021 37.6462 81.2514 47.1837 79.8122C54.2059 78.7519 60.1709 75.5341 65.1715 70.5053C69.9565 65.6959 74.7762 60.9258 79.5821 56.1372C79.7861 55.9339 80.0063 55.7399 80.1756 55.5089C80.7714 54.7027 80.8942 53.8249 80.4792 52.9032C80.0759 52.0093 79.3479 51.5334 78.3835 51.4456C77.484 51.3648 76.7839 51.7667 76.1556 52.3927C72.2794 56.2735 68.387 60.1358 64.5061 64.0119C62.0904 66.4236 59.3456 68.3524 56.2089 69.7176C55.9493 69.8308 55.6803 69.9694 55.4763 70.1611C54.1201 71.4432 52.5019 71.949 50.6542 71.9421C45.3337 71.919 40.0132 71.9329 34.6927 71.9329C34.4122 71.9329 34.1294 71.9329 33.8071 71.9329V69.1655H33.8094ZM15.6571 76.0446V55.4049H12.9864V76.0446H15.6571ZM57.7019 65.6058C57.7761 65.6821 57.8503 65.756 57.9221 65.8322C59.1184 64.899 60.4097 64.0651 61.49 63.0163C65.401 59.221 69.2424 55.3541 73.107 51.5126C73.1835 51.4364 73.2322 51.3348 73.2832 51.2585C72.1704 49.3112 70.0144 49.1657 68.6652 50.9513C66.1799 54.2384 63.7272 57.5463 61.2605 60.845C60.0735 62.4319 58.8865 64.0166 57.6996 65.6035L57.7019 65.6058ZM64.3021 52.1502C62.4915 50.8797 60.3587 51.4156 59.4499 53.356C58.3162 55.7768 57.2776 58.2439 56.1162 60.6509C55.7221 61.4686 55.9029 61.9561 56.5845 62.4689C59.1647 59.0201 61.7149 55.6082 64.2998 52.1502H64.3021Z" fill="#6315FF"/>
<path d="M47.6358 21.3973C52.0081 17.043 56.3549 12.7141 60.7875 8.30206C59.7559 8.30206 58.7636 8.30667 57.7714 8.30206C56.4616 8.29513 55.9863 7.83082 55.9817 6.54416C55.9747 4.93179 55.9747 3.31711 55.9817 1.70474C55.9886 0.510483 56.4755 0.00921643 57.6555 0.00690645C63.0038 -2.3503e-05 68.3522 -2.3503e-05 73.7005 0.00690645C74.9315 0.00690645 75.4137 0.498933 75.4137 1.75325C75.4184 7.05467 75.4184 12.3538 75.4137 17.6552C75.4137 18.8517 74.9199 19.3599 73.7515 19.3669C72.0754 19.3784 70.3969 19.3784 68.7208 19.3669C67.5941 19.3576 67.1003 18.8517 67.0887 17.7129C67.0771 16.6873 67.0887 15.664 67.0887 14.4697C66.734 14.8 66.5045 14.9987 66.2912 15.2135C60.5858 20.8961 54.8828 26.5786 49.1798 32.2612C47.863 33.5733 47.3483 33.5502 46.0825 32.1457C42.6213 28.3111 39.1577 24.4812 35.6942 20.6512C35.5226 20.4595 35.3418 20.277 35.1169 20.0391C34.8735 20.2655 34.6417 20.4641 34.4261 20.6789C30.9695 24.1208 27.5152 27.5627 24.0609 31.0046C22.9551 32.1041 22.3825 32.1087 21.2998 31.0346C20.1128 29.8542 18.9212 28.6784 17.7435 27.4888C16.8881 26.6248 16.8742 25.9549 17.7203 25.1072C23.1336 19.7041 28.5492 14.3057 33.9717 8.9142C34.8596 8.02948 35.5806 8.08492 36.4708 9.06897C40.0109 12.9844 43.5486 16.9044 47.0887 20.8222C47.2788 21.0324 47.4804 21.2357 47.6381 21.3997L47.6358 21.3973ZM72.5761 16.5579V2.81123H58.81V5.5347C60.5348 5.5347 62.2063 5.54856 63.8778 5.52777C64.6243 5.51853 65.2711 5.64558 65.5864 6.4148C65.8901 7.15168 65.5192 7.67605 65.0207 8.1727C59.6608 13.5064 54.3055 18.8471 48.9456 24.1832C47.9464 25.1765 47.2695 25.1557 46.3259 24.1139C44.0795 21.6307 41.84 19.1451 39.5959 16.6619C38.1098 15.0172 36.6215 13.3748 35.205 11.8109C30.3134 16.6827 25.4728 21.5059 20.653 26.3038C21.3114 26.9459 22.0208 27.6366 22.8647 28.4613C23.0478 28.221 23.231 27.9184 23.4721 27.6759C26.9008 24.2479 30.3366 20.8245 33.7723 17.4034C34.8851 16.2946 35.518 16.3177 36.5728 17.4865C40.092 21.3835 43.6158 25.2781 47.1304 29.182C47.3158 29.3876 47.4294 29.6555 47.6404 29.9997C48.0693 29.5077 48.2826 29.2328 48.526 28.9903C54.7391 22.7926 60.9568 16.6018 67.1675 10.4041C67.6845 9.8867 68.2177 9.47553 68.9966 9.81048C69.764 10.1408 69.8706 10.7922 69.8614 11.5291C69.8428 13.1923 69.8544 14.8555 69.8544 16.5602H72.5692L72.5761 16.5579Z" fill="#6315FF"/>
<path d="M35.1864 53.908H32.3789V53.0256C32.3789 46.1395 32.3789 39.2534 32.3789 32.3651C32.3789 30.8428 32.7962 30.4362 34.3425 30.4339C35.9329 30.4339 37.5232 30.4224 39.1136 30.4385C40.1522 30.4478 40.6993 30.9537 40.6993 31.9608C40.7086 40.1151 40.6993 48.2693 40.6993 56.4235C40.6993 56.479 40.6784 56.5344 40.6529 56.6545H37.9405V33.2452H35.1841V53.908H35.1864Z" fill="#6315FF"/>
<path d="M68.5029 44.2246H65.6978V43.3422C65.6978 36.9158 65.6978 30.4918 65.6978 24.0654C65.6978 22.5454 66.115 22.1366 67.6637 22.1366C69.254 22.1366 70.8444 22.125 72.4347 22.1412C73.4733 22.1504 74.0182 22.6563 74.0205 23.6635C74.0297 30.434 74.0205 37.2046 74.0205 43.9775C74.0205 44.0329 73.9996 44.0883 73.9741 44.2061H71.2617V24.9455H68.5052V44.2269L68.5029 44.2246Z" fill="#6315FF"/>
<path d="M49.0685 38.7754H46.2796V56.6523H43.5231C43.5092 56.3751 43.4837 56.0956 43.4837 55.8184C43.4837 49.854 43.4814 43.8897 43.4837 37.9253C43.4837 36.3822 43.894 35.9687 45.4195 35.9664C47.04 35.9664 48.6582 35.9526 50.2763 35.971C51.257 35.9826 51.8018 36.5 51.8041 37.4633C51.8157 43.7742 51.8087 50.0827 51.8041 56.3936C51.8041 56.4744 51.767 56.553 51.7392 56.6708H49.0662V38.773L49.0685 38.7754Z" fill="#6315FF"/>
<path d="M26.8545 37.394H24.0656V51.1222H21.3137C21.2998 50.8727 21.272 50.6232 21.272 50.3715C21.2697 45.733 21.2697 41.0946 21.272 36.4561C21.272 35.0332 21.7125 34.5873 23.122 34.585C24.7703 34.5827 26.4186 34.5712 28.067 34.5897C29.0453 34.6012 29.5901 35.1186 29.5924 36.0819C29.6063 41.0091 29.597 45.9363 29.5924 50.8635C29.5924 50.9443 29.5553 51.0229 29.5252 51.1407H26.8522V37.394H26.8545Z" fill="#6315FF"/>
<path d="M57.3959 46.9896H54.5884C54.5884 46.724 54.5884 46.5022 54.5884 46.2805C54.5884 41.5843 54.5861 36.8881 54.5884 32.1919C54.5884 30.9029 55.066 30.4409 56.3782 30.4363C58.0265 30.4317 59.6748 30.4247 61.3231 30.4386C62.3269 30.4478 62.9019 30.9399 62.9042 31.8731C62.9227 36.4238 62.9135 40.9721 62.9135 45.5852H60.15V33.2406H57.3936V46.9873L57.3959 46.9896Z" fill="#6315FF"/>
</g>
<defs>
<clipPath id="clip0_1462_472">
<rect x="0.5" width="83" height="83" rx="4" fill="white"/>
</clipPath>
</defs>
</svg>
