<svg width="84" height="83" viewBox="0 0 84 83" fill="none" xmlns="http://www.w3.org/2000/svg">
<g clip-path="url(#clip0_1462_400)">
<path d="M54.4662 36.0364C54.4038 37.0928 54.3438 38.066 54.2861 39.0369C54.226 40.0448 53.6741 40.6481 52.8358 40.6157C52.0021 40.5834 51.4894 39.9384 51.524 38.9236C51.5563 38.0059 51.621 37.0882 51.6764 36.1011H36.5106V48.4684C37.8824 48.6326 39.2264 48.762 40.559 48.9608C41.5936 49.1157 42.1086 49.7375 41.9862 50.5512C41.8568 51.4019 41.1502 51.7995 40.0809 51.6655C38.917 51.5175 37.7484 51.4042 36.5198 51.2702V66.534C38.0925 66.3283 39.6237 66.1457 41.1479 65.9214C42.194 65.7666 42.8753 66.0879 43.0531 66.8947C43.2471 67.7754 42.7644 68.4088 41.7067 68.6168C23.9128 72.1213 6.19733 61.1756 1.59007 43.1932C-3.05414 25.056 7.53448 6.56968 25.4462 1.3777C45.1385 -4.33209 65.5167 8.27337 69.094 28.4195C69.4404 30.3682 69.5235 32.3701 69.6505 34.3535C69.7244 35.5255 69.1656 36.0317 67.9762 36.034C63.7985 36.041 59.6185 36.0364 55.4408 36.0364C55.1313 36.0364 54.8218 36.0364 54.4662 36.0364ZM12.3611 12.3881C6.80009 18.1788 3.77246 25.1092 3.30134 33.1976H15.7329C15.8437 27.4601 16.7652 21.9191 18.458 16.6485C16.391 15.2037 14.435 13.8375 12.3611 12.3858V12.3881ZM51.7065 16.6554C53.4431 21.9954 54.3161 27.5433 54.4477 33.2023H66.8792C66.3827 25.0791 63.362 18.1534 57.8148 12.3904C55.7664 13.8213 53.7919 15.2014 51.7088 16.6554H51.7065ZM18.4557 52.6248C16.7351 47.3149 15.8553 41.767 15.7259 36.1034H3.29441C3.79555 44.2266 6.80702 51.1546 12.3496 56.8921C14.4257 55.4404 16.4049 54.058 18.4557 52.6271V52.6248ZM33.6654 20.7424C29.2868 20.5413 25.0906 19.5589 21.026 17.7858C19.4256 22.883 18.6035 27.9849 18.5134 33.2231H33.6654V20.7424ZM51.6741 33.2416C51.5309 27.9317 50.7619 22.8229 49.1292 17.7789C45.0392 19.5889 40.8592 20.5321 36.5406 20.7424V33.2416H51.6741ZM33.6446 48.5332V36.1103H18.5018C18.6335 41.3809 19.4187 46.4642 21.026 51.4875C25.0975 49.689 29.2752 48.7343 33.6446 48.5332ZM21.9313 54.1389C22.4833 55.2948 22.9705 56.4321 23.5571 57.5163C25.1552 60.459 27.0928 63.122 29.9888 64.9413C31.1066 65.644 32.2982 66.178 33.6446 66.3306V51.3141C29.5523 51.5175 25.6887 52.4029 21.9313 54.1412V54.1389ZM22.0629 15.1875C25.7303 16.8612 29.5731 17.772 33.6562 17.9477V3.0028C29.0235 3.48131 24.2361 8.98767 22.0629 15.1875ZM36.5083 17.913C40.0994 17.9084 46.1431 16.4335 48.1846 15.0396C47.6719 13.9716 47.1916 12.8666 46.6258 11.8102C45.1986 9.14949 43.4619 6.72688 41.0001 4.9076C39.6698 3.92515 38.2172 3.20391 36.5083 2.95657V17.913ZM14.405 58.8131C17.7929 61.6749 21.384 63.6907 25.4347 64.8997C22.8805 62.0933 20.8875 58.9564 19.4395 55.2901C17.749 56.4737 16.1347 57.6041 14.405 58.8154V58.8131ZM55.7433 10.4671C52.3508 7.60993 48.7781 5.61035 44.7459 4.40597C47.2955 7.21001 49.277 10.3492 50.7296 13.9924C52.4178 12.8065 54.0297 11.6738 55.7433 10.4694V10.4671ZM19.451 13.9901C20.8828 10.3423 22.8805 7.21001 25.4301 4.40366C21.384 5.61497 17.7929 7.61917 14.4373 10.4671C16.1393 11.6623 17.7536 12.795 19.451 13.9878V13.9901Z" fill="#6315FF"/>
<path d="M83.4053 53.4316C83.4053 56.1409 83.567 58.864 83.373 61.5594C82.9573 67.2946 80.3061 71.985 76.1884 75.8963C72.9506 78.9708 69.2048 81.2524 65.0502 82.8451C64.519 83.0486 63.7731 83.0578 63.2488 82.8475C56.9557 80.3347 51.5679 76.6337 47.9075 70.7737C45.8452 67.4726 44.8105 63.8433 44.7828 59.9505C44.7482 55.3364 44.7713 50.7201 44.7736 46.106C44.7736 44.8438 45.2285 44.3792 46.471 44.3399C52.4154 44.1503 57.921 42.4975 62.9394 39.2959C63.78 38.7596 64.4543 38.7364 65.3088 39.2797C70.3526 42.4929 75.8813 44.1619 81.858 44.3422C83.0312 44.3769 83.4954 44.867 83.5 46.076C83.5069 48.5286 83.5 50.979 83.5 53.4316C83.47 53.4316 83.4376 53.4316 83.4076 53.4316H83.4053ZM47.5403 47.0954C47.5403 51.4297 47.5172 55.6647 47.5472 59.902C47.5726 63.3209 48.4917 66.5087 50.3092 69.4052C53.5309 74.5417 58.2767 77.7826 63.7477 80.0873C64.0386 80.2099 64.5121 80.1382 64.8007 79.9787C67.1379 78.6865 69.5951 77.5538 71.7428 75.9934C77.7657 71.6174 81.0359 65.7689 80.7518 58.1266C80.6294 54.7863 80.731 51.4367 80.731 48.0917V47.1393C80.4862 47.1046 80.3199 47.07 80.1514 47.0561C74.5788 46.6215 69.3849 44.9964 64.5675 42.1461C64.3296 42.0051 63.8631 42.0768 63.5791 42.2109C61.9925 42.9575 60.4637 43.829 58.854 44.5202C55.2791 46.0575 51.5101 46.8272 47.5379 47.0977L47.5403 47.0954Z" fill="#6315FF"/>
<path d="M61.3136 65.9423C61.6415 65.6302 61.8702 65.4199 62.0919 65.2003C65.5144 61.7744 68.9369 58.3485 72.3595 54.9226C72.5835 54.6984 72.8006 54.4557 73.0615 54.2869C73.6758 53.8893 74.2855 53.9656 74.789 54.4788C75.2647 54.9643 75.334 55.5537 74.9737 56.1409C74.8259 56.3813 74.6111 56.587 74.4079 56.7905C70.5189 60.6879 66.6298 64.5831 62.7362 68.4782C61.6531 69.5624 61.078 69.5577 59.9834 68.462C57.9442 66.4231 55.9096 64.3819 53.8727 62.3431C53.7503 62.2205 53.621 62.105 53.5078 61.9755C52.9536 61.3306 52.9351 60.5816 53.4593 60.0268C54.0043 59.4466 54.8242 59.4119 55.4616 60.0268C56.6855 61.2057 57.8772 62.4217 59.0735 63.6307C59.8032 64.3681 60.5168 65.1194 61.3136 65.9423Z" fill="#6315FF"/>
</g>
<defs>
<clipPath id="clip0_1462_400">
<rect x="0.5" width="83" height="83" rx="4" fill="white"/>
</clipPath>
</defs>
</svg>
